<?xml version="1.0" encoding="UTF-8" standalone="no"?>
<svg width="211px" height="52px" viewBox="0 0 211 52" version="1.1" xmlns="http://www.w3.org/2000/svg" xmlns:xlink="http://www.w3.org/1999/xlink" xmlns:sketch="http://www.bohemiancoding.com/sketch/ns">
    <!-- Generator: Sketch Beta 3.1 (8603) - http://www.bohemiancoding.com/sketch -->
    <title>logo</title>
    <desc>Created with Sketch Beta.</desc>
    <defs>
        <path id="path-1" d="M-0.322351567,11.9551529 C-0.322351567,5.53844655 4.89431809,0.337302691 11.3301788,0.337302691 C17.7660396,0.337302691 22.9827092,5.53844655 22.9827092,11.9551529 C22.9827092,18.3718593 17.7660396,23.5730032 11.3301788,23.5730032 C4.89431809,23.5730032 -0.322351567,18.3718593 -0.322351567,11.9551529 L-0.322351567,11.9551529 Z"></path>
        <path id="path-3" d="M-0.322351567,11.5772785 C-0.322351567,5.15977655 4.89431809,-0.0413673112 11.3301788,-0.0413673112 C17.7660396,-0.0413673112 22.9827092,5.15977655 22.9827092,11.5772785 C22.9827092,17.9931893 17.7660396,23.1951287 11.3301788,23.1951287 C4.89431809,23.1951287 -0.322351567,17.9931893 -0.322351567,11.5772785 L-0.322351567,11.5772785 Z"></path>
        <path id="path-5" d="M-0.322351567,11.9941337 C-0.322351567,5.57742729 4.89431809,0.376283427 11.3301788,0.376283427 C17.7660396,0.376283427 22.9827092,5.57742729 22.9827092,11.9941337 C22.9827092,18.4100445 17.7660396,23.6119839 11.3301788,23.6119839 C4.89431809,23.6119839 -0.322351567,18.4100445 -0.322351567,11.9941337 L-0.322351567,11.9941337 Z"></path>
    </defs>
    <g id="Welcome" stroke="none" stroke-width="1" fill="none" fill-rule="evenodd" sketch:type="MSPage">
        <g id="logo" sketch:type="MSLayerGroup" transform="translate(1.000000, 0.000000)">
            <g id="Group-144" transform="translate(8.702940, 5.568677)">
                <mask id="mask-2" sketch:name="Clip 134" fill="white">
                    <use xlink:href="#path-1"></use>
                </mask>
                <g id="Clip-134"></g>
                <path d="M12.2166456,0.337302691 L12.9770443,0.337302691 L12.9770443,18.345607 L12.2166456,18.345607 L12.2166456,0.337302691 Z" id="Fill-133" fill="#6E78AC" sketch:type="MSShapeGroup" mask="url(#mask-2)"></path>
                <path d="M14.7499779,0.337302691 L15.5095786,0.337302691 L15.5095786,18.345607 L14.7499779,18.345607 L14.7499779,0.337302691 Z" id="Fill-135" fill="#6E78AC" sketch:type="MSShapeGroup" mask="url(#mask-2)"></path>
                <path d="M17.2833101,0.337302691 L18.0429108,0.337302691 L18.0429108,18.345607 L17.2833101,18.345607 L17.2833101,0.337302691 Z" id="Fill-136" fill="#6E78AC" sketch:type="MSShapeGroup" mask="url(#mask-2)"></path>
                <path d="M19.8166424,0.337302691 L20.577041,0.337302691 L20.577041,18.345607 L19.8166424,18.345607 L19.8166424,0.337302691 Z" id="Fill-137" fill="#6E78AC" sketch:type="MSShapeGroup" mask="url(#mask-2)"></path>
                <path d="M22.3499746,0.337302691 L22.9835071,0.337302691 L22.9835071,18.345607 L22.3499746,18.345607 L22.3499746,0.337302691 Z" id="Fill-138" fill="#6E78AC" sketch:type="MSShapeGroup" mask="url(#mask-2)"></path>
                <path d="M9.6841113,0.337302691 L10.443712,0.337302691 L10.443712,18.345607 L9.6841113,18.345607 L9.6841113,0.337302691 Z" id="Fill-139" fill="#6E78AC" sketch:type="MSShapeGroup" mask="url(#mask-2)"></path>
                <path d="M7.15077906,0.337302691 L7.91037978,0.337302691 L7.91037978,18.345607 L7.15077906,18.345607 L7.15077906,0.337302691 Z" id="Fill-140" fill="#6E78AC" sketch:type="MSShapeGroup" mask="url(#mask-2)"></path>
                <path d="M4.61744682,0.337302691 L5.37704755,0.337302691 L5.37704755,18.345607 L4.61744682,18.345607 L4.61744682,0.337302691 Z" id="Fill-141" fill="#6E78AC" sketch:type="MSShapeGroup" mask="url(#mask-2)"></path>
                <path d="M2.08411458,0.337302691 L2.84371531,0.337302691 L2.84371531,18.345607 L2.08411458,18.345607 L2.08411458,0.337302691 Z" id="Fill-142" fill="#6E78AC" sketch:type="MSShapeGroup" mask="url(#mask-2)"></path>
                <path d="M-0.322351567,0.337302691 L0.311180968,0.337302691 L0.311180968,18.345607 L-0.322351567,18.345607 L-0.322351567,0.337302691 Z" id="Fill-143" fill="#6E78AC" sketch:type="MSShapeGroup" mask="url(#mask-2)"></path>
            </g>
            <g id="Group-156" transform="translate(8.702940, 13.523929)">
                <mask id="mask-4" sketch:name="Clip 146" fill="white">
                    <use xlink:href="#path-3"></use>
                </mask>
                <g id="Clip-146"></g>
                <path d="M11.9637114,-0.0413673112 L13.2299785,-0.0413673112 L13.2299785,23.1943332 L11.9637114,23.1943332 L11.9637114,-0.0413673112 Z" id="Fill-145" fill="#4BA241" sketch:type="MSShapeGroup" mask="url(#mask-4)"></path>
                <path d="M14.4962457,-0.0413673112 L15.7633108,-0.0413673112 L15.7633108,23.1943332 L14.4962457,23.1943332 L14.4962457,-0.0413673112 Z" id="Fill-147" fill="#4BA241" sketch:type="MSShapeGroup" mask="url(#mask-4)"></path>
                <path d="M17.0303758,-0.0413673112 L18.296643,-0.0413673112 L18.296643,23.1943332 L17.0303758,23.1943332 L17.0303758,-0.0413673112 Z" id="Fill-148" fill="#4BA241" sketch:type="MSShapeGroup" mask="url(#mask-4)"></path>
                <path d="M19.5629102,-0.0413673112 L20.8291774,-0.0413673112 L20.8291774,23.1943332 L19.5629102,23.1943332 L19.5629102,-0.0413673112 Z" id="Fill-149" fill="#4BA241" sketch:type="MSShapeGroup" mask="url(#mask-4)"></path>
                <path d="M22.0962424,-0.0413673112 L22.9827092,-0.0413673112 L22.9827092,23.1943332 L22.0962424,23.1943332 L22.0962424,-0.0413673112 Z" id="Fill-150" fill="#4BA241" sketch:type="MSShapeGroup" mask="url(#mask-4)"></path>
                <path d="M9.43037913,-0.0413673112 L10.6966463,-0.0413673112 L10.6966463,23.1943332 L9.43037913,23.1943332 L9.43037913,-0.0413673112 Z" id="Fill-151" fill="#4BA241" sketch:type="MSShapeGroup" mask="url(#mask-4)"></path>
                <path d="M6.89704689,-0.0413673112 L8.16331406,-0.0413673112 L8.16331406,23.1943332 L6.89704689,23.1943332 L6.89704689,-0.0413673112 Z" id="Fill-152" fill="#4BA241" sketch:type="MSShapeGroup" mask="url(#mask-4)"></path>
                <path d="M4.36371465,-0.0413673112 L5.62998182,-0.0413673112 L5.62998182,23.1943332 L4.36371465,23.1943332 L4.36371465,-0.0413673112 Z" id="Fill-153" fill="#4BA241" sketch:type="MSShapeGroup" mask="url(#mask-4)"></path>
                <path d="M1.83038241,-0.0413673112 L3.09664958,-0.0413673112 L3.09664958,23.1943332 L1.83038241,23.1943332 L1.83038241,-0.0413673112 Z" id="Fill-154" fill="#4BA241" sketch:type="MSShapeGroup" mask="url(#mask-4)"></path>
                <path d="M-0.322351567,-0.0413673112 L0.564115242,-0.0413673112 L0.564115242,23.1943332 L-0.322351567,23.1943332 L-0.322351567,-0.0413673112 Z" id="Fill-155" fill="#4BA241" sketch:type="MSShapeGroup" mask="url(#mask-4)"></path>
            </g>
            <path d="M36.4036312,3.03095107 L36.4036312,33.3388707 L33.3636325,33.3388707 L33.3636325,36.3690263 L39.4436299,36.3690263 L39.4436299,0 L-0.0739593711,0 L-0.0739593711,36.3690263 L6.0052401,36.3690263 L6.0052401,33.3388707 L2.96524142,33.3388707 L2.96524142,3.03095107 L36.4036312,3.03095107" id="Fill-157" fill="#1A1918" sketch:type="MSShapeGroup"></path>
            <g id="Group-169" transform="translate(8.702940, 20.683656)">
                <mask id="mask-6" sketch:name="Clip 159" fill="white">
                    <use xlink:href="#path-5"></use>
                </mask>
                <g id="Clip-159"></g>
                <path d="M11.7099792,0.376283427 L13.4829128,0.376283427 L13.4829128,23.6119839 L11.7099792,23.6119839 L11.7099792,0.376283427 Z" id="Fill-158" fill="#DB322A" sketch:type="MSShapeGroup" mask="url(#mask-6)"></path>
                <path d="M14.2433114,0.376283427 L16.016245,0.376283427 L16.016245,23.6119839 L14.2433114,23.6119839 L14.2433114,0.376283427 Z" id="Fill-160" fill="#DB322A" sketch:type="MSShapeGroup" mask="url(#mask-6)"></path>
                <path d="M16.7766437,0.376283427 L18.5495773,0.376283427 L18.5495773,23.6119839 L16.7766437,23.6119839 L16.7766437,0.376283427 Z" id="Fill-161" fill="#DB322A" sketch:type="MSShapeGroup" mask="url(#mask-6)"></path>
                <path d="M19.3099759,0.376283427 L21.0829095,0.376283427 L21.0829095,23.6119839 L19.3099759,23.6119839 L19.3099759,0.376283427 Z" id="Fill-162" fill="#DB322A" sketch:type="MSShapeGroup" mask="url(#mask-6)"></path>
                <path d="M21.8433081,0.376283427 L22.9835071,0.376283427 L22.9835071,23.6119839 L21.8433081,23.6119839 L21.8433081,0.376283427 Z" id="Fill-163" fill="#DB322A" sketch:type="MSShapeGroup" mask="url(#mask-6)"></path>
                <path d="M9.17664695,0.376283427 L10.9495806,0.376283427 L10.9495806,23.6119839 L9.17664695,23.6119839 L9.17664695,0.376283427 Z" id="Fill-164" fill="#DB322A" sketch:type="MSShapeGroup" mask="url(#mask-6)"></path>
                <path d="M6.64411261,0.376283427 L8.41784413,0.376283427 L8.41784413,23.6119839 L6.64411261,23.6119839 L6.64411261,0.376283427 Z" id="Fill-165" fill="#DB322A" sketch:type="MSShapeGroup" mask="url(#mask-6)"></path>
                <path d="M4.11078038,0.376283427 L5.88451189,0.376283427 L5.88451189,23.6119839 L4.11078038,23.6119839 L4.11078038,0.376283427 Z" id="Fill-166" fill="#DB322A" sketch:type="MSShapeGroup" mask="url(#mask-6)"></path>
                <path d="M1.57744814,0.376283427 L3.35038175,0.376283427 L3.35038175,23.6119839 L1.57744814,23.6119839 L1.57744814,0.376283427 Z" id="Fill-167" fill="#DB322A" sketch:type="MSShapeGroup" mask="url(#mask-6)"></path>
                <path d="M-0.322351567,0.376283427 L0.817847416,0.376283427 L0.817847416,23.6119839 L-0.322351567,23.6119839 L-0.322351567,0.376283427 Z" id="Fill-168" fill="#DB322A" sketch:type="MSShapeGroup" mask="url(#mask-6)"></path>
            </g>
            <path d="M8.70293972,40.256758 C8.70293972,33.8400516 13.9196094,28.6389078 20.3554701,28.6389078 C26.7913309,28.6389078 32.0080005,33.8400516 32.0080005,40.256758 C32.0080005,46.6734644 26.7913309,51.8746083 20.3554701,51.8746083 C13.9196094,51.8746083 8.70293972,46.6734644 8.70293972,40.256758" id="Fill-170" fill="#09417A" sketch:type="MSShapeGroup"></path>
            <g id="Group" transform="translate(46.462687, 4.000000)" fill="#545554" sketch:type="MSShapeGroup">
                <path d="M68.289194,4.33333333 L70.2232836,10.9503333 C70.4853015,12.0014762 71.0378985,13.3794762 71.0378985,14.0858095 C71.0378985,14.5754762 70.6163104,14.9741429 69.8886209,14.9741429 C69.3801075,14.9741429 69.0889075,14.9017143 68.7977075,14.793381 L68.7977075,17.4757143 C69.5111164,17.6211905 70.2381851,17.8019524 71.1980896,17.8019524 C74.0635224,17.8019524 74.7471284,15.21 75.474197,12.2373333 L77.4815522,4.33333333 L73.9616955,4.33333333 L73.0595343,10.1344286 L73.0303522,10.1344286 L72.0853493,4.33333333 L68.289194,4.33333333" id="Fill-171"></path>
                <path d="M0,13.272381 L8.68322388,13.272381 L8.68322388,9.53766667 L3.89798209,9.53766667 L3.89798209,0.619047619 L0,0.619047619 L0,13.272381" id="Fill-172"></path>
                <path d="M9.31343284,8.48157143 C9.31343284,11.7445714 10.9426627,13.5936667 14.0117493,13.5936667 C17.0659343,13.5936667 18.7243463,11.7445714 18.7243463,8.48157143 C18.7243463,5.30895238 17.0659343,3.71428571 14.0117493,3.71428571 C10.9426627,3.71428571 9.31343284,5.30895238 9.31343284,8.48157143 L9.31343284,8.48157143 Z M13.2114149,8.48157143 C13.2114149,7.358 13.2989612,6.43314286 14.0117493,6.43314286 C14.7245373,6.43314286 14.8263642,7.358 14.8263642,8.48157143 C14.8263642,9.85957143 14.7245373,10.8748095 14.0117493,10.8748095 C13.2989612,10.8748095 13.2114149,9.85957143 13.2114149,8.48157143 L13.2114149,8.48157143 Z" id="Fill-173"></path>
                <path d="M19.8686567,4.19033333 L19.8686567,6.90919048 L21.1632239,6.90919048 L21.1632239,10.1721905 C21.1632239,12.6737619 22.0796657,13.8524286 23.9702925,13.8524286 C24.8718328,13.8524286 25.6864478,13.6530952 26.4867821,13.3627619 L26.4867821,10.6439048 C26.2247642,10.7522381 25.9627463,10.8073333 25.6287045,10.8073333 C25.1481313,10.8073333 24.8283701,10.3715238 24.8283701,9.57419048 L24.8283701,6.90919048 L26.4867821,6.90919048 L26.4867821,4.19033333 L24.8283701,4.19033333 L24.8283701,0.619047619 L21.1632239,2.015 L21.1632239,4.19033333 L19.8686567,4.19033333" id="Fill-174"></path>
                <path d="M30.9119045,7.75666667 C30.8684418,7.01319048 31.057194,5.889 31.900991,5.889 C32.7305075,5.889 32.8174328,7.03114286 32.8174328,7.75666667 L30.9119045,7.75666667 L30.9119045,7.75666667 Z M35.9883463,9.75061905 L35.9883463,9.18852381 C35.9883463,5.99795238 34.955797,3.71428571 32.0177194,3.71428571 C28.9486328,3.71428571 27.319403,5.30895238 27.319403,8.48157143 C27.319403,11.7445714 28.9486328,13.5936667 32.0177194,13.5936667 C33.2973851,13.5936667 34.4609433,13.4302381 35.4357493,13.0501429 L35.4357493,10.6024286 C34.8539701,10.9837619 33.951809,11.2004286 32.9484418,11.2004286 C31.871809,11.2004286 30.9851701,10.9292857 30.926806,9.75061905 L35.9883463,9.75061905 L35.9883463,9.75061905 Z" id="Fill-175"></path>
                <path d="M36.6328358,3.93157143 L36.6328358,13.376381 L40.2979821,13.376381 L40.2979821,9.94995238 C40.2979821,8.554 41.1560597,7.44838095 42.1743284,7.44838095 C42.508991,7.44838095 42.8287522,7.50285714 43.0032239,7.5932381 L43.0032239,3.80404762 C42.8579343,3.75019048 42.6250985,3.71428571 42.4071642,3.71428571 C41.2585075,3.71428571 40.5308179,4.72890476 40.0943284,6.07038095 L40.0651463,6.07038095 L40.0651463,3.93157143 L36.6328358,3.93157143" id="Fill-176"></path>
                <path d="M49.302209,6.90485714 C50.0292776,6.45109524 50.9606209,6.10690476 51.8329791,6.10690476 C52.7494209,6.10690476 53.7527881,6.2517619 53.7676896,7.46633333 C53.4330269,7.43042857 52.8512478,7.33942857 52.3421134,7.33942857 C50.5241313,7.33942857 48.4298507,7.91947619 48.4298507,10.8203333 C48.4298507,12.7957143 49.7964418,13.5936667 51.2077373,13.5936667 C52.2402866,13.5936667 53.171009,13.0860476 53.6801433,12.0163333 L53.7093254,12.0163333 L53.7093254,13.376381 L57.1130746,13.376381 L57.1130746,7.6297619 C57.1130746,4.18538095 54.567403,3.71428571 52.4731224,3.71428571 C51.0475463,3.71428571 50.3931224,3.87709524 49.302209,4.25780952 L49.302209,6.90485714 L49.302209,6.90485714 Z M53.7676896,9.5147619 C53.7676896,10.3306667 53.3889433,11.2004286 52.6326925,11.2004286 C52.0658149,11.2004286 51.7746149,10.9472381 51.7746149,10.2941429 C51.7746149,9.31542857 52.647594,9.22504762 53.4038448,9.22504762 L53.7676896,9.22504762 L53.7676896,9.5147619 L53.7676896,9.5147619 Z" id="Fill-177"></path>
                <path d="M44.0835821,13.5961429 L47.7487284,13.5961429 L47.7487284,4.15133333 L44.0835821,4.15133333 L44.0835821,13.5961429 Z M45.6979104,0 L44.2580537,2.82780952 L46.2796896,2.82780952 L49.1451224,0 L45.6979104,0 L45.6979104,0 Z" id="Fill-178"></path>
                <path d="M58.5821134,13.0501429 C59.6146627,13.376381 60.6906746,13.5936667 61.7530269,13.5936667 C63.4834627,13.5936667 65.9564896,12.8687619 65.9564896,10.1678571 C65.9564896,6.61452381 61.7089433,7.73871429 61.7089433,6.76 C61.7089433,6.17995238 62.3490866,6.10690476 62.9749493,6.10690476 C63.8038448,6.10690476 64.5892776,6.32480952 65.359809,6.65104762 L65.359809,4.11295238 C64.4582687,3.87771429 63.5418269,3.71428571 62.6253851,3.71428571 C60.8216836,3.71428571 58.3641791,4.18538095 58.3641791,6.90485714 C58.3641791,10.5485714 62.6111045,9.42438095 62.6111045,10.5844762 C62.6111045,11.0555714 61.8834149,11.2010476 61.2730746,11.2010476 C60.3274507,11.2010476 59.28,10.8748095 58.5821134,10.3492381 L58.5821134,13.0501429" id="Fill-179"></path>
            </g>
            <g id="Group" transform="translate(44.462687, 24.285714)" fill="#545554" sketch:type="MSShapeGroup">
                <path d="M109.898507,13.272381 L118.800287,13.272381 L118.800287,10.2266667 L113.709564,10.2266667 L113.709564,8.50509524 L118.480525,8.50509524 L118.480525,5.45938095 L113.709564,5.45938095 L113.709564,3.66414286 L118.69846,3.66414286 L118.69846,0.619047619 L109.898507,0.619047619 L109.898507,13.272381" id="Fill-180"></path>
                <path d="M120.05077,13.0501429 C121.083319,13.376381 122.159952,13.5936667 123.221684,13.5936667 C124.952119,13.5936667 127.425146,12.8687619 127.425146,10.1678571 C127.425146,6.61452381 123.178221,7.73871429 123.178221,6.76 C123.178221,6.17995238 123.817743,6.10690476 124.442985,6.10690476 C125.272501,6.10690476 126.057934,6.32480952 126.828466,6.65104762 L126.828466,4.11295238 C125.926925,3.87771429 125.010484,3.71428571 124.094042,3.71428571 C122.29034,3.71428571 119.832836,4.18538095 119.832836,6.90485714 C119.832836,10.5485714 124.079761,9.42438095 124.079761,10.5844762 C124.079761,11.0555714 123.352693,11.2010476 122.741731,11.2010476 C121.796107,11.2010476 120.748657,10.8748095 120.05077,10.3492381 L120.05077,13.0501429" id="Fill-181"></path>
                <path d="M127.904478,4.18971429 L127.904478,6.90919048 L129.199045,6.90919048 L129.199045,10.1721905 C129.199045,12.6737619 130.114866,13.8518095 132.006113,13.8518095 C132.907654,13.8518095 133.722269,13.6524762 134.521982,13.3621429 L134.521982,10.6432857 C134.260585,10.7522381 133.998567,10.8067143 133.664525,10.8067143 C133.183952,10.8067143 132.864191,10.3715238 132.864191,9.57357143 L132.864191,6.90919048 L134.521982,6.90919048 L134.521982,4.18971429 L132.864191,4.18971429 L132.864191,0.619047619 L129.199045,2.01438095 L129.199045,4.18971429 L127.904478,4.18971429" id="Fill-182"></path>
                <path d="M136.228203,6.90485714 C136.955272,6.45171429 137.885994,6.10690476 138.758973,6.10690476 C139.675415,6.10690476 140.678782,6.25238095 140.693063,7.46633333 C140.359021,7.43042857 139.776621,7.34004762 139.267487,7.34004762 C137.449504,7.34004762 135.355224,7.92009524 135.355224,10.8203333 C135.355224,12.7963333 136.722436,13.5936667 138.13311,13.5936667 C139.16566,13.5936667 140.097003,13.0860476 140.606137,12.0169524 L140.634699,12.0169524 L140.634699,13.376381 L144.038448,13.376381 L144.038448,7.6297619 C144.038448,4.18538095 141.493397,3.71428571 139.398496,3.71428571 C137.972919,3.71428571 137.318496,3.87771429 136.228203,4.25842857 L136.228203,6.90485714 L136.228203,6.90485714 Z M140.693063,9.5147619 C140.693063,10.3306667 140.314937,11.2010476 139.558687,11.2010476 C138.991809,11.2010476 138.700609,10.9472381 138.700609,10.2941429 C138.700609,9.31542857 139.572967,9.22504762 140.329839,9.22504762 L140.693063,9.22504762 L140.693063,9.5147619 L140.693063,9.5147619 Z" id="Fill-183"></path>
                <path d="M154.496812,13.5961429 L154.496812,0 L150.831045,0 L150.831045,5.36590476 L150.801863,5.36590476 C150.234985,4.35066667 149.493015,3.93404762 148.51883,3.93404762 C146.235176,3.93404762 145.289552,6.16385714 145.289552,8.71990476 C145.289552,11.4567143 146.191713,13.8134286 148.620657,13.8134286 C149.812776,13.8134286 150.554746,13.2878571 151.063881,11.8739524 L151.093063,11.8739524 L151.093063,13.5961429 L154.496812,13.5961429 L154.496812,13.5961429 Z M150.932872,8.82885714 C150.932872,9.71657143 150.816764,10.7683333 150.031331,10.7683333 C149.230997,10.7683333 149.099988,9.71657143 149.099988,8.71990476 C149.099988,7.74057143 149.230997,6.76185714 150.002149,6.76185714 C150.816764,6.76185714 150.932872,7.74057143 150.932872,8.82885714 L150.932872,8.82885714 Z" id="Fill-184"></path>
                <path d="M155.223881,8.48219048 C155.223881,11.7445714 156.85311,13.5936667 159.922197,13.5936667 C162.976382,13.5936667 164.634794,11.7445714 164.634794,8.48219048 C164.634794,5.30957143 162.976382,3.71428571 159.922197,3.71428571 C156.85311,3.71428571 155.223881,5.30957143 155.223881,8.48219048 L155.223881,8.48219048 Z M159.121863,8.48219048 C159.121863,7.358 159.209409,6.43314286 159.922197,6.43314286 C160.634985,6.43314286 160.736812,7.358 160.736812,8.48219048 C160.736812,9.85957143 160.634985,10.8748095 159.922197,10.8748095 C159.209409,10.8748095 159.121863,9.85957143 159.121863,8.48219048 L159.121863,8.48219048 Z" id="Fill-185"></path>
                <path d="M89.9230567,13.5961429 L89.9230567,0 L86.2579104,0 L86.2579104,5.36590476 L86.2287284,5.36590476 C85.6618507,4.35066667 84.9198806,3.93404762 83.9450746,3.93404762 C81.6614209,3.93404762 80.7164179,6.16385714 80.7164179,8.71990476 C80.7164179,11.4567143 81.6179582,13.8134286 84.0469015,13.8134286 C85.2396418,13.8134286 85.9816119,13.2878571 86.4907463,11.8739524 L86.5199284,11.8739524 L86.5199284,13.5961429 L89.9230567,13.5961429 L89.9230567,13.5961429 Z M86.3597373,8.82885714 C86.3597373,9.71657143 86.243009,10.7683333 85.4575761,10.7683333 C84.6578627,10.7683333 84.5268537,9.71657143 84.5268537,8.71990476 C84.5268537,7.74057143 84.6578627,6.76185714 85.4290149,6.76185714 C86.243009,6.76185714 86.3597373,7.74057143 86.3597373,8.82885714 L86.3597373,8.82885714 Z" id="Fill-186"></path>
                <path d="M94.2432478,7.75666667 C94.1997851,7.01319048 94.3885373,5.88961905 95.2323343,5.88961905 C96.0612299,5.88961905 96.1487761,7.0317619 96.1487761,7.75666667 L94.2432478,7.75666667 L94.2432478,7.75666667 Z M99.3196896,9.75061905 L99.3196896,9.18914286 C99.3196896,5.99795238 98.2871403,3.71428571 95.3484418,3.71428571 C92.2793552,3.71428571 90.6507463,5.30957143 90.6507463,8.48219048 C90.6507463,11.7445714 92.2793552,13.5936667 95.3484418,13.5936667 C96.6287284,13.5936667 97.7922866,13.4302381 98.7670925,13.0501429 L98.7670925,10.6024286 C98.1853134,10.9837619 97.2831522,11.2010476 96.2797851,11.2010476 C95.2031522,11.2010476 94.3158925,10.9292857 94.2581493,9.75061905 L99.3196896,9.75061905 L99.3196896,9.75061905 Z" id="Fill-187"></path>
                <path d="M99.9641791,0 L103.629325,0 L103.629325,13.5955238 L99.9641791,13.5955238 L99.9641791,0 Z" id="Fill-188"></path>
                <path d="M0,13.272381 L3.88370149,13.272381 L4.50894328,10.5349524 L7.79658507,10.5349524 L8.46528955,13.272381 L12.5526448,13.272381 L8.93096119,0.619047619 L3.5639403,0.619047619 L0,13.272381 L0,13.272381 Z M6.16735522,3.33790476 L6.19653731,3.33790476 L7.30173134,7.48985714 L5.0472597,7.48985714 L6.16735522,3.33790476 L6.16735522,3.33790476 Z" id="Fill-189"></path>
                <path d="M13.038806,17.1829048 L16.7039522,17.1829048 L16.7039522,12.1618095 L16.7331343,12.1618095 C17.3006328,13.1770476 18.042603,13.5936667 19.0167881,13.5936667 C21.3004418,13.5936667 22.2460657,11.3638571 22.2460657,8.80842857 C22.2460657,6.07038095 21.3439045,3.71428571 18.9149612,3.71428571 C17.7222209,3.71428571 16.9808716,4.23985714 16.4717373,5.6537619 L16.4425552,5.6537619 L16.4425552,3.93157143 L13.038806,3.93157143 L13.038806,17.1829048 L13.038806,17.1829048 Z M16.6021254,8.69947619 C16.6021254,7.81114286 16.7188537,6.76 17.5042866,6.76 C18.304,6.76 18.435009,7.81114286 18.435009,8.80842857 C18.435009,9.80509524 18.304,10.7658571 17.5334687,10.7658571 C16.7188537,10.7658571 16.6021254,9.80509524 16.6021254,8.69947619 L16.6021254,8.69947619 Z" id="Fill-190"></path>
                <path d="M31.597994,4.33333333 L27.9328478,4.33333333 L27.9328478,9.77228571 C27.9328478,10.3158095 27.9328478,11.0586667 27.2784239,11.0586667 C26.6382806,11.0586667 26.6382806,10.3158095 26.6382806,9.77228571 L26.6382806,4.33333333 L22.9731343,4.33333333 L22.9731343,10.8958571 C22.9731343,12.726381 23.6853015,13.9954286 25.6349134,13.9954286 C26.6674627,13.9954286 27.6708299,13.4698571 28.1073194,12.1463333 L28.1365015,12.1463333 L28.1365015,13.7781429 L31.597994,13.7781429 L31.597994,4.33333333" id="Fill-191"></path>
                <path d="M36.4999642,7.75666667 C36.4565015,7.01319048 36.6452537,5.88961905 37.4890507,5.88961905 C38.3179463,5.88961905 38.4054925,7.0317619 38.4054925,7.75666667 L36.4999642,7.75666667 L36.4999642,7.75666667 Z M41.576406,9.75061905 L41.576406,9.18914286 C41.576406,5.99795238 40.5432358,3.71428571 37.6057791,3.71428571 C34.5366925,3.71428571 32.9074627,5.30957143 32.9074627,8.48219048 C32.9074627,11.7445714 34.5366925,13.5936667 37.6057791,13.5936667 C38.8854448,13.5936667 40.049003,13.4302381 41.023809,13.0501429 L41.023809,10.6024286 C40.441409,10.9837619 39.5398687,11.2010476 38.5365015,11.2010476 C37.4598687,11.2010476 36.5732299,10.9292857 36.5148657,9.75061905 L41.576406,9.75061905 L41.576406,9.75061905 Z" id="Fill-192"></path>
                <path d="M42.4388299,13.0501429 C43.4713791,13.376381 44.5480119,13.5936667 45.6097433,13.5936667 C47.3408,13.5936667 49.813206,12.8687619 49.813206,10.1678571 C49.813206,6.61452381 45.5662806,7.73871429 45.5662806,6.76 C45.5662806,6.17995238 46.205803,6.10690476 46.8316657,6.10690476 C47.6605612,6.10690476 48.445994,6.32480952 49.2171463,6.65104762 L49.2171463,4.11295238 C48.3149851,3.87771429 47.3985433,3.71428571 46.4827224,3.71428571 C44.6790209,3.71428571 42.2208955,4.18538095 42.2208955,6.90485714 C42.2208955,10.5485714 46.4678209,9.42438095 46.4678209,10.5844762 C46.4678209,11.0555714 45.7407522,11.2010476 45.129791,11.2010476 C44.1841672,11.2010476 43.1367164,10.8748095 42.4388299,10.3492381 L42.4388299,13.0501429" id="Fill-193"></path>
                <path d="M50.2925373,4.18971429 L50.2925373,6.90919048 L51.5871045,6.90919048 L51.5871045,10.1721905 C51.5871045,12.6737619 52.5035463,13.8518095 54.3941731,13.8518095 C55.2957134,13.8518095 56.1109493,13.6524762 56.9106627,13.3621429 L56.9106627,10.6432857 C56.6486448,10.7522381 56.3872478,10.8067143 56.0525851,10.8067143 C55.5726328,10.8067143 55.2522507,10.3715238 55.2522507,9.57357143 L55.2522507,6.90919048 L56.9106627,6.90919048 L56.9106627,4.18971429 L55.2522507,4.18971429 L55.2522507,0.619047619 L51.5871045,2.01438095 L51.5871045,4.18971429 L50.2925373,4.18971429" id="Fill-194"></path>
                <path d="M58.6162627,6.90485714 C59.3433313,6.45171429 60.2746746,6.10690476 61.1470328,6.10690476 C62.0634746,6.10690476 63.0668418,6.25238095 63.0811224,7.46633333 C62.7470806,7.43042857 62.1646806,7.34004762 61.6561672,7.34004762 C59.8381851,7.34004762 57.7432836,7.92009524 57.7432836,10.8203333 C57.7432836,12.7963333 59.1104955,13.5936667 60.521791,13.5936667 C61.5543403,13.5936667 62.4850627,13.0860476 62.994197,12.0169524 L63.0233791,12.0169524 L63.0233791,13.376381 L66.4271284,13.376381 L66.4271284,7.6297619 C66.4271284,4.18538095 63.8814567,3.71428571 61.7871761,3.71428571 C60.3616,3.71428571 59.7071761,3.87771429 58.6162627,4.25842857 L58.6162627,6.90485714 L58.6162627,6.90485714 Z M63.0811224,9.5147619 C63.0811224,10.3306667 62.702997,11.2010476 61.9467463,11.2010476 C61.3798687,11.2010476 61.0886687,10.9472381 61.0886687,10.2941429 C61.0886687,9.31542857 61.9616478,9.22504762 62.7178985,9.22504762 L63.0811224,9.22504762 L63.0811224,9.5147619 L63.0811224,9.5147619 Z" id="Fill-195"></path>
                <path d="M67.8961672,13.0501429 C68.9287164,13.376381 70.0047284,13.5936667 71.0670806,13.5936667 C72.7975164,13.5936667 75.2699224,12.8687619 75.2699224,10.1678571 C75.2699224,6.61452381 71.022997,7.73871429 71.022997,6.76 C71.022997,6.17995238 71.6631403,6.10690476 72.2883821,6.10690476 C73.1178985,6.10690476 73.9027104,6.32480952 74.6738627,6.65104762 L74.6738627,4.11295238 C73.7717015,3.87771429 72.8558806,3.71428571 71.9394388,3.71428571 C70.1357373,3.71428571 67.6776119,4.18538095 67.6776119,6.90485714 C67.6776119,10.5485714 71.9251582,9.42438095 71.9251582,10.5844762 C71.9251582,11.0555714 71.1974687,11.2010476 70.5865075,11.2010476 C69.6415045,11.2010476 68.5940537,10.8748095 67.8961672,10.3492381 L67.8961672,13.0501429" id="Fill-196"></path>
            </g>
        </g>
    </g>
</svg>