<?xml version="1.0" encoding="UTF-8" standalone="no"?>
<svg width="125px" height="81px" viewBox="0 0 125 81" version="1.1" xmlns="http://www.w3.org/2000/svg" xmlns:xlink="http://www.w3.org/1999/xlink" xmlns:sketch="http://www.bohemiancoding.com/sketch/ns">
    <!-- Generator: Sketch Beta 3.1 (8603) - http://www.bohemiancoding.com/sketch -->
    <title>flor5</title>
    <desc>Created with Sketch Beta.</desc>
    <defs></defs>
    <g id="Page-1" stroke="none" stroke-width="1" fill="none" fill-rule="evenodd" sketch:type="MSPage">
        <path d="M-324.832,9.36 L-325.12,62.784 C-325.12,63.7440048 -325.479996,64.224 -326.2,64.224 C-327.208005,64.224 -327.736,63.7920043 -327.784,62.928 C-328.600004,51.0719407 -329.008,43.9920115 -329.008,41.688 C-329.008,37.7519803 -328.840002,32.4720331 -328.504,25.848 C-328.167998,19.2239669 -328,14.5680134 -328,11.88 C-328,10.487993 -327.928001,9.5520024 -327.784,9.072 C-327.591999,8.39999664 -327.160003,8.064 -326.488,8.064 C-325.863997,8.064 -325.312002,8.49599568 -324.832,9.36 L-324.832,9.36 Z M-296.968,12.312 C-296.968,13.1280041 -297.423995,13.7039983 -298.336,14.04 C-299.584006,14.4240019 -300.807994,14.7839983 -302.008,15.12 C-304.168011,15.7920034 -305.655996,17.1839894 -306.472,19.296 C-307.240004,21.2160096 -307.624,24.2159796 -307.624,28.296 C-307.624,29.6400067 -307.396002,31.7639855 -306.94,34.668 C-306.483998,37.5720145 -306.256,39.7679926 -306.256,41.256 C-306.256,43.4160108 -306.591997,46.1759832 -307.264,49.536 C-308.032004,53.3760192 -309.015994,56.6879861 -310.216,59.472 C-312.23201,64.080023 -314.391988,67.7039868 -316.696,70.344 C-318.76001,72.6480115 -320.583992,73.8 -322.168,73.8 C-323.224005,73.8 -324.159996,73.2600054 -324.976,72.18 C-325.792004,71.0999946 -326.391998,70.56 -326.776,70.56 C-327.304003,70.56 -327.879997,71.0039956 -328.504,71.892 C-329.128003,72.7800044 -329.943995,73.224 -330.952,73.224 C-334.744019,73.224 -338.127985,70.4160281 -341.104,64.8 C-342.928009,61.3439827 -344.511993,56.2560336 -345.856,49.536 C-346.384003,46.8959868 -346.648,44.7120086 -346.648,42.984 C-346.648,38.9999801 -346.552001,34.9440206 -346.36,30.816 C-346.167999,26.6879794 -346.072,24.528001 -346.072,24.336 C-346.072,20.4479806 -347.10399,17.7600074 -349.168,16.272 C-350.272006,15.5039962 -351.351995,14.7360038 -352.408,13.968 C-353.272004,13.3439969 -353.704,12.8400019 -353.704,12.456 C-353.704,12.0719981 -353.368003,11.88 -352.696,11.88 C-350.919991,11.88 -348.964011,12.6719921 -346.828,14.256 C-344.691989,15.8400079 -343.120005,17.6639897 -342.112,19.728 C-340.671993,22.7040149 -339.736002,27.4319676 -339.304,33.912 C-339.015999,41.0160355 -338.728001,48.1439642 -338.44,55.296 C-338.151999,60.0480238 -337.456006,63.6719875 -336.352,66.168 C-335.343995,68.3280108 -334.120007,69.408 -332.68,69.408 C-332.151997,69.408 -331.888,68.8560055 -331.888,67.752 C-331.888,67.9920012 -332.247996,66.1920192 -332.968,62.352 C-333.832004,58.0799786 -334.455998,53.3280262 -334.84,48.096 L-337.216,14.76 C-337.216,11.351983 -336.424008,9.648 -334.84,9.648 C-333.399993,9.648 -332.512002,11.3279832 -332.176,14.688 C-332.08,15.5520043 -332.032,17.687983 -332.032,21.096 L-332.032,27.504 C-332.032,40.6080655 -331.576005,50.15997 -330.664,56.16 C-329.703995,62.4480314 -328.144011,65.592 -325.984,65.592 L-325.768,65.592 C-325.672,65.5439998 -325.6,65.52 -325.552,65.52 C-324.879997,65.3759993 -324.208003,64.0560125 -323.536,61.56 C-322.815996,58.7759861 -322.456,55.6320175 -322.456,52.128 L-322.456,36.864 C-322.456,34.271987 -322.192003,29.880031 -321.664,23.688 C-321.231998,18.5999746 -320.848002,15.2640079 -320.512,13.68 C-320.127998,11.5199892 -319.528004,10.44 -318.712,10.44 C-317.991996,10.44 -317.272004,10.8959954 -316.552,11.808 C-315.783996,12.8640053 -315.4,14.1119928 -315.4,15.552 C-315.4,15.6480005 -315.759996,18.599971 -316.48,24.408 C-317.344004,31.5120355 -318.087997,38.8799618 -318.712,46.512 C-319.000001,50.112018 -319.479997,54.4559746 -320.152,59.544 C-320.728003,63.6240204 -321.016,66.2399942 -321.016,67.392 C-321.016,68.1120036 -320.656004,68.472 -319.936,68.472 C-318.879995,68.472 -317.848005,66.672018 -316.84,63.072 C-315.687994,59.0399798 -315.112,54.4080262 -315.112,49.176 L-315.112,37.728 C-315.112,33.6479796 -314.344008,29.5440206 -312.808,25.416 C-311.367993,21.4319801 -309.496012,18.1920125 -307.192,15.696 C-304.503987,12.7679854 -301.456017,11.304 -298.048,11.304 C-297.327996,11.304 -296.968,11.6399966 -296.968,12.312 L-296.968,12.312 Z M-242.248,8.568 C-242.248,8.71200072 -242.751995,9.23999544 -243.76,10.152 C-245.008006,11.2560055 -245.991996,12.3359947 -246.712,13.392 C-249.112012,16.992018 -250.312,22.0799671 -250.312,28.656 C-250.312,31.1040122 -249.616007,35.4479688 -248.224,41.688 C-246.831993,47.9280312 -246.136,52.847982 -246.136,56.448 C-246.136,61.8240269 -247.191989,66.0599845 -249.304,69.156 C-251.416011,72.2520155 -254.271982,73.8 -257.872,73.8 C-261.136016,73.8 -263.847989,71.5440226 -266.008,67.032 C-267.448007,64.0079849 -268.168,59.400031 -268.168,53.208 L-268.168,52.2 C-268.168,49.8959885 -267.640005,45.4800326 -266.584,38.952 C-265.527995,32.4239674 -265,27.0960206 -265,22.968 C-265,18.167976 -266.055989,14.4240134 -268.168,11.736 C-268.216,11.6399995 -268.839994,11.088005 -270.04,10.08 C-271.000005,9.21599568 -271.695998,8.35200432 -272.128,7.488 C-271.695998,7.0079976 -271.216003,6.768 -270.688,6.768 C-268.815991,6.768 -267.136007,8.0879868 -265.648,10.728 C-264.015992,13.7040149 -263.056001,17.6399755 -262.768,22.536 C-262.72,25.2720137 -262.528002,30.143965 -262.192,37.152 C-261.759998,43.5840322 -261.544,48.7199808 -261.544,52.56 C-261.544,53.760006 -261.627999,55.2959906 -261.796,57.168 C-261.964001,59.0400094 -262.048,60.3119966 -262.048,60.984 C-262.048,65.3520218 -261.160009,67.9679957 -259.384,68.832 C-258.663996,68.1119964 -258.304,66.4800127 -258.304,63.936 C-258.304,61.4399875 -258.627997,55.0320516 -259.276,44.712 C-259.924003,34.3919484 -260.248,25.3680386 -260.248,17.64 C-260.248,12.2639731 -259.360009,8.56801008 -257.584,6.552 L-256.432,6.552 C-255.135994,7.89600672 -254.488,10.6559791 -254.488,14.832 C-254.488,14.7359995 -254.559999,16.0079868 -254.704,18.648 C-254.848001,21.5760146 -254.968,24.6719837 -255.064,27.936 L-255.28,37.008 C-255.328,38.0640053 -255.423999,40.4159818 -255.568,44.064 C-255.664,46.9440144 -255.712,49.2239916 -255.712,50.904 L-255.712,62.136 C-255.712,66.6960228 -255.280004,68.976 -254.416,68.976 L-254.272,68.976 C-253.599997,68.976 -252.964003,68.2200076 -252.364,66.708 C-251.763997,65.1959924 -251.464,63.336011 -251.464,61.128 C-251.464,60.119995 -251.799997,57.120025 -252.472,52.128 C-253.144003,47.135975 -253.48,42.5280211 -253.48,38.304 C-253.48,29.3279551 -252.400011,21.936029 -250.24,16.128 C-248.27199,10.7519731 -245.872014,7.87200192 -243.04,7.488 C-242.511997,7.92000216 -242.248,8.27999856 -242.248,8.568 L-242.248,8.568 Z M-114.952,62.208 C-114.952,62.5440017 -115.215997,62.8799983 -115.744,63.216 C-116.272003,63.5520017 -116.775998,63.72 -117.256,63.72 C-117.400001,63.72 -117.927995,63.6000012 -118.84,63.36 C-119.752005,63.1199988 -120.543997,63 -121.216,63 C-121.408001,63 -121.875996,63.0479995 -122.62,63.144 C-123.364004,63.2400005 -123.999997,63.288 -124.528,63.288 C-128.51202,63.288 -132.711978,61.9680132 -137.128,59.328 C-141.784023,56.5439861 -145.887982,52.7040245 -149.44,47.808 C-150.304004,46.6559942 -151.503992,44.5920149 -153.04,41.616 C-154.432007,38.9279866 -155.631995,36.9600062 -156.64,35.712 C-156.736,36.2400026 -156.784,36.7439976 -156.784,37.224 C-156.784,37.9440036 -155.416014,41.3519695 -152.68,47.448 C-150.567989,52.2000238 -148.120014,56.879977 -145.336,61.488 C-143.175989,65.088018 -142.096,66.9599993 -142.096,67.104 C-142.096,67.4400017 -142.239999,67.608 -142.528,67.608 C-143.200003,67.608 -144.711988,66.2880132 -147.064,63.648 C-149.992015,60.2879832 -152.703988,56.2320238 -155.2,51.48 C-158.080014,45.9599724 -160.575989,40.3200288 -162.688,34.56 C-164.224008,30.2879786 -165.04,28.152 -165.136,28.152 C-165.520002,28.152 -165.712,28.3919976 -165.712,28.872 C-165.712,31.6560139 -163.888018,38.7359431 -160.24,50.112 C-158.655992,55.0080245 -156.83201,59.6159784 -154.768,63.936 C-153.135992,67.2960168 -152.32,69.0959988 -152.32,69.336 C-152.32,71.4960108 -153.183991,72.576 -154.912,72.576 C-156.016006,72.576 -157.263993,71.7480083 -158.656,70.092 C-160.048007,68.4359917 -160.815999,67.608 -160.96,67.608 C-161.728004,67.608 -162.112,68.4719914 -162.112,70.2 L-162.112,72.216 C-162.112,73.8000079 -163.815983,74.592 -167.224,74.592 C-171.112019,74.592 -173.056,73.9680062 -173.056,72.72 C-173.056,72.1439971 -172.972001,71.3880047 -172.804,70.452 C-172.635999,69.5159953 -172.552,68.8800017 -172.552,68.544 C-172.552,68.2079983 -172.791998,68.04 -173.272,68.04 C-173.464001,68.04 -174.195994,68.7599928 -175.468,70.2 C-176.740006,71.6400072 -177.831995,72.36 -178.744,72.36 C-179.272003,72.36 -179.823997,71.9880037 -180.4,71.244 C-180.976003,70.4999963 -181.264,69.7440038 -181.264,68.976 C-181.264,68.783999 -180.736005,67.5120118 -179.68,65.16 C-178.143992,61.7039827 -176.752006,58.4160156 -175.504,55.296 C-171.039978,44.0639438 -168.808,36.3600209 -168.808,32.184 C-168.808,31.9439988 -168.772,31.5840024 -168.7,31.104 C-168.628,30.6239976 -168.592,30.2640012 -168.592,30.024 C-168.592,29.5919978 -168.735999,29.376 -169.024,29.376 C-169.216001,29.376 -169.671996,30.0479933 -170.392,31.392 C-171.544006,33.5040106 -173.007991,37.0079755 -174.784,41.904 C-176.75201,47.2800269 -178.359994,51.2879868 -179.608,53.928 C-181.384009,57.6240185 -183.159991,60.7199875 -184.936,63.216 C-186.424007,65.2800103 -187.407998,66.312 -187.888,66.312 C-188.416003,66.312 -188.68,66.0000031 -188.68,65.376 C-188.68,64.8959976 -188.200005,63.6720098 -187.24,61.704 C-184.791988,57.2399777 -181.960016,51.8640314 -178.744,45.576 C-177.735995,43.175988 -176.728005,40.776012 -175.72,38.376 C-174.855996,36.2639894 -174.352001,34.6560055 -174.208,33.552 L-174.496,32.112 C-174.880002,32.1600002 -176.271988,34.5359765 -178.672,39.24 C-180.544009,42.8880182 -183.639978,47.1599755 -187.96,52.056 C-190.216011,54.648013 -194.007973,57.3119863 -199.336,60.048 C-200.920008,60.8640041 -202.143996,61.272 -203.008,61.272 C-203.104,61.272 -203.211999,61.2240005 -203.332,61.128 C-203.452001,61.0319995 -203.583999,60.984 -203.728,60.984 C-203.776,60.984 -204.639992,61.4279956 -206.32,62.316 C-208.000008,63.2040044 -209.775991,63.648 -211.648,63.648 C-212.848006,63.648 -213.855996,63.3600029 -214.672,62.784 L-214.744,61.128 C-203.943946,56.135975 -194.056045,48.4080523 -185.08,37.944 C-176.199956,27.6239484 -171.76,21.3120115 -171.76,19.008 C-171.76,18.7199986 -172.107997,18.0360054 -172.804,16.956 C-173.500003,15.8759946 -173.848,14.8560048 -173.848,13.896 C-173.848,10.3439822 -171.472024,8.568 -166.72,8.568 C-162.111977,8.568 -159.808,10.4159815 -159.808,14.112 C-159.808,14.5440022 -160.143997,15.2399952 -160.816,16.2 C-161.488003,17.1600048 -161.824,17.8079983 -161.824,18.144 C-161.824,19.0560046 -160.312015,21.7439777 -157.288,26.208 C-153.447981,31.8720283 -148.720028,37.6799702 -143.104,43.632 C-139.02398,48.0000218 -135.664013,51.1919899 -133.024,53.208 C-129.08798,56.1840149 -124.768024,58.3199935 -120.064,59.616 C-118.959994,59.8560012 -117.832006,60.1199986 -116.68,60.408 C-115.527994,60.6960014 -114.952,61.2959954 -114.952,62.208 L-114.952,62.208 Z M-20.128,71.424 C-20.128,73.7280115 -21.8079832,74.88 -25.168,74.88 C-29.4400214,74.88 -34.0239755,73.5600132 -38.92,70.92 C-44.2480266,68.0399856 -48.9039801,64.0560254 -52.888,58.968 L-54.184,57.96 C-54.2800005,62.568023 -54.3999993,67.1999767 -54.544,71.856 C-54.6400005,74.9280154 -55.0239966,76.464 -55.696,76.464 C-56.6080046,76.464 -57.2559981,74.9280154 -57.64,71.856 C-57.7840007,70.7519945 -58.0959976,66.1920401 -58.576,58.176 C-58.6240002,57.3119957 -58.8159983,56.88 -59.152,56.88 C-59.2960007,56.88 -59.6319974,57.3599952 -60.16,58.32 C-60.9760041,59.8080074 -62.079993,61.3439921 -63.472,62.928 C-66.6880161,66.5760182 -70.3239797,69.39599 -74.38,71.388 C-78.4360203,73.38001 -82.3839808,74.376 -86.224,74.376 C-87.6640072,74.376 -88.8999948,73.8960048 -89.932,72.936 C-90.9640052,71.9759952 -91.48,70.9440055 -91.48,69.84 C-91.48,68.5439935 -90.7360074,67.5360036 -89.248,66.816 C-86.4159858,65.3759928 -84.7840022,64.4880017 -84.352,64.152 C-84.4960007,64.0559995 -86.1759839,63.0000101 -89.392,60.984 C-91.0240082,59.975995 -91.84,58.8000067 -91.84,57.456 C-91.84,56.5439954 -91.444004,55.692004 -90.652,54.9 C-89.859996,54.107996 -89.0080046,53.712 -88.096,53.712 C-88.7200031,53.712 -87.0160202,54.1319958 -82.984,54.972 C-78.9519798,55.8120042 -74.4640247,56.232 -69.52,56.232 C-67.6959909,56.232 -66.184006,55.9680026 -64.984,55.44 C-63.783994,54.9119974 -63.184,54.3120034 -63.184,53.64 C-63.184,52.9679966 -63.5439964,52.4160022 -64.264,51.984 C-65.1280043,51.791999 -65.9679959,51.600001 -66.784,51.408 C-68.8000101,50.8319971 -70.8639894,49.8720067 -72.976,48.528 C-76.9600199,45.9839873 -80.1999875,42.6720204 -82.696,38.592 C-85.0480118,34.6559803 -86.224,30.8640182 -86.224,27.216 C-86.224,24.9599887 -85.2880094,23.832 -83.416,23.832 C-82.3599947,23.832 -81.5800025,24.3959944 -81.076,25.524 C-80.5719975,26.6520056 -79.9600036,27.216 -79.24,27.216 C-78.3759957,27.216 -77.944,26.2560096 -77.944,24.336 L-77.944,22.248 C-77.944,18.9359834 -76.8640108,17.28 -74.704,17.28 C-73.6479947,17.28 -72.7720035,17.6519963 -72.076,18.396 C-71.3799965,19.1400037 -71.032,20.0639945 -71.032,21.168 C-71.032,21.360001 -71.1039993,21.8999956 -71.248,22.788 C-71.3920007,23.6760044 -71.464,24.4799964 -71.464,25.2 C-71.464,32.6400372 -70.3120115,38.6159774 -68.008,43.128 C-65.8479892,47.4960218 -63.0880168,49.68 -59.728,49.68 C-58.8159954,49.68 -58.36,49.3920029 -58.36,48.816 C-58.36,48.5759988 -58.7199964,48.0720038 -59.44,47.304 C-60.3520046,46.295995 -61.0719974,45.3600043 -61.6,44.496 C-62.9440067,42.287989 -64.119995,38.9760221 -65.128,34.56 C-66.2800058,29.6639755 -66.856,24.8400238 -66.856,20.088 C-66.856,18.2639909 -66.5200034,16.7160064 -65.848,15.444 C-65.1759966,14.1719936 -64.4800036,13.536 -63.76,13.536 C-62.8479954,13.536 -61.8520054,14.2559928 -60.772,15.696 C-59.6919946,17.1360072 -58.9600019,17.9279993 -58.576,18.072 C-58.4319993,17.4959971 -58.36,16.8720034 -58.36,16.2 C-58.36,15.2879954 -58.4319993,14.2560058 -58.576,13.104 C-58.7200007,11.9519942 -58.792,11.2560012 -58.792,11.016 C-58.792,10.007995 -58.5160028,9.13200372 -57.964,8.388 C-57.4119972,7.64399628 -56.8000034,7.272 -56.128,7.272 C-54.2559906,7.272 -53.32,8.66398608 -53.32,11.448 C-53.32,12.0240029 -53.3799994,12.8879942 -53.5,14.04 C-53.6200006,15.1920058 -53.68,16.0559971 -53.68,16.632 C-53.68,16.7760007 -53.6320005,17.1839966 -53.536,17.856 C-53.0079974,17.5679986 -52.240005,16.7760065 -51.232,15.48 C-50.3679957,14.3759945 -49.6240031,13.824 -49,13.824 C-47.4639923,13.824 -46.5040019,15.8159801 -46.12,19.8 C-45.9759993,21.1440067 -45.904,23.8799794 -45.904,28.008 C-45.904,34.2960314 -48.2799762,41.4239602 -53.032,49.392 C-52.8879993,49.7760019 -52.5040031,49.968 -51.88,49.968 C-48.7599844,49.968 -46.3840082,48.2880168 -44.752,44.928 C-43.1199918,41.5679832 -42.0400026,36.384035 -41.512,29.376 C-41.4159995,28.0319933 -41.368,26.9520041 -41.368,26.136 L-41.368,24.696 C-41.4160002,24.0719969 -41.44,23.6160014 -41.44,23.328 C-41.44,18.8639777 -40.0960134,16.632 -37.408,16.632 C-36.3519947,16.632 -35.5840024,17.231994 -35.104,18.432 C-34.8159986,19.2960043 -34.5280014,21.0479868 -34.24,23.688 C-33.9039983,26.9040161 -33.6160012,28.512 -33.376,28.512 C-33.0399983,28.512 -32.7280014,28.0800043 -32.44,27.216 C-32.0559981,26.1119945 -31.6720019,24.9840058 -31.288,23.832 C-30.8559978,22.9679957 -30.1600048,22.536 -29.2,22.536 C-28.2879954,22.536 -27.4840035,23.0039953 -26.788,23.94 C-26.0919965,24.8760047 -25.744,25.9679938 -25.744,27.216 C-25.744,30.4320161 -26.9679878,34.0799796 -29.416,38.16 C-33.4000199,44.8320334 -37.9359746,49.0079916 -43.024,50.688 C-44.2720062,50.9760014 -45.5199938,51.2879983 -46.768,51.624 C-48.3040077,52.0080019 -49.4079966,52.6079959 -50.08,53.424 L-50.08,53.496 C-50.08,54.0720029 -49.3360074,54.6719969 -47.848,55.296 C-46.3599926,55.9200031 -44.6080101,56.232 -42.592,56.232 C-39.999987,56.232 -36.8440186,55.9680026 -33.124,55.44 C-29.4039814,54.9119974 -26.9920055,54.648 -25.888,54.648 C-23.1039861,54.648 -21.712,55.9919866 -21.712,58.68 C-21.712,60.2160077 -23.0319868,61.583994 -25.672,62.784 C-25.7200002,62.784 -26.4639928,63.0719971 -27.904,63.648 C-28.3360022,63.840001 -28.552,64.031999 -28.552,64.224 C-28.552,64.8480031 -27.952006,65.4959966 -26.752,66.168 C-25.3119928,66.7920031 -23.8480074,67.3919971 -22.36,67.968 C-20.8719926,68.7360038 -20.128,69.8879923 -20.128,71.424 L-20.128,71.424 Z M118.4,21.024 C118.4,22.5600077 118.256001,24.0719926 117.968,25.56 C117.679999,27.0480074 117.536,27.8159998 117.536,27.864 C117.536,27.9600005 117.56,28.1759983 117.608,28.512 L117.608,29.376 C117.608,31.776012 117.032006,32.976 115.88,32.976 C114.343992,32.976 113.576,31.5600142 113.576,28.728 C113.576,27.1919923 113.899997,25.3320109 114.548,23.148 C115.196003,20.9639891 115.52,19.5600031 115.52,18.936 C115.52,17.8799947 114.788007,16.8240053 113.324,15.768 C111.859993,14.7119947 110.528006,14.184 109.328,14.184 C104.623976,14.184 99.4400283,17.0399714 93.776,22.752 C87.9199707,28.7040298 82.0640293,37.2239446 76.208,48.312 C74.0959894,52.3440202 72.2960074,56.7119765 70.808,61.416 C69.5599938,65.4480202 68.6720026,68.9519851 68.144,71.928 C67.951999,72.936005 67.8080005,73.5599988 67.712,73.8 C67.4239986,74.2800024 66.8720041,74.6399988 66.056,74.88 C65.8159988,74.4959981 65.696,74.1120019 65.696,73.728 C65.696,73.4399986 65.8879981,72.5040079 66.272,70.92 C66.7520024,68.6639887 67.1599983,66.6720086 67.496,64.944 C67.7360012,62.351987 68.5759928,57.5040355 70.016,50.4 C73.2800163,37.6799364 78.1279678,27.816035 84.56,20.808 C90.8480314,14.0399662 97.9279606,10.656 105.8,10.656 C109.544019,10.656 112.579988,11.6399902 114.908,13.608 C117.236012,15.5760098 118.4,18.0479851 118.4,21.024 L118.4,21.024 Z M75.272,20.376 C75.272,21.0000031 74.6000067,22.7279858 73.256,25.56 C71.3359904,29.4960197 69.776006,33.1199834 68.576,36.432 C67.567995,39.2640142 66.7280034,43.175975 66.056,48.168 C65.7199983,50.6160122 65.1440041,56.135957 64.328,64.728 C64.1839993,66.5040089 64.016001,68.2799911 63.824,70.056 C63.6799993,71.3040062 63.3920022,71.928 62.96,71.928 C62.3839971,71.928 62.096,70.5600137 62.096,67.824 C62.096,67.2479971 62.1199998,66.4320053 62.168,65.376 C62.2160002,64.3199947 62.24,63.5280026 62.24,63 L62.24,62.424 C62.24,55.2719642 61.9520029,49.3440235 61.376,44.64 C60.8479974,40.5599796 60.2960029,38.52 59.72,38.52 C59.1919974,38.52 58.928,39.3119921 58.928,40.896 C58.928,40.7519993 58.9999993,41.6639902 59.144,43.632 C59.2880007,45.8880113 59.3839998,48.3839863 59.432,51.12 C59.4800002,52.8000084 59.6719983,55.343983 60.008,58.752 C60.2960014,61.9200158 60.44,64.3199918 60.44,65.952 C60.44,71.95203 60.2240022,74.952 59.792,74.952 L59.648,74.952 C58.7359954,74.952 58.1600012,73.656013 57.92,71.064 C57.6319986,67.2239808 57.3680012,63.3600194 57.128,59.472 C56.7439981,54.6239758 55.8800067,50.0640214 54.536,45.792 C54.0559976,44.3039926 51.9680185,38.9760458 48.272,29.808 C45.7279873,23.5199686 44.456,20.1120026 44.456,19.584 C44.456,18.9119966 44.755997,18.276003 45.356,17.676 C45.956003,17.075997 46.5199974,16.776 47.048,16.776 C47.4320019,16.776 48.1519947,17.1239965 49.208,17.82 C50.2640053,18.5160035 50.9599983,18.864 51.296,18.864 C51.5840014,18.864 51.9919974,18.4800038 52.52,17.712 C53.2400036,16.6559947 53.9599964,15.6000053 54.68,14.544 C56.6960101,11.7119858 58.2319947,10.296 59.288,10.296 C60.1040041,10.296 60.7999971,10.5599974 61.376,11.088 C61.6640014,11.3760014 62.2639954,12.0959942 63.176,13.248 C63.3200007,13.440001 64.2799911,14.735988 66.056,17.136 C66.7280034,18.0960048 67.1839988,18.576 67.424,18.576 C67.7120014,18.576 68.3959946,18.2040037 69.476,17.46 C70.5560054,16.7159963 71.2639983,16.344 71.6,16.344 C72.5120046,16.344 73.3519962,16.7639958 74.12,17.604 C74.8880038,18.4440042 75.272,19.367995 75.272,20.376 L75.272,20.376 Z M56.768,73.512 C56.768,74.3280041 56.3600041,74.736 55.544,74.736 C54.9199969,74.736 54.4640014,74.4720026 54.176,73.944 C53.983999,73.6079983 53.7200017,72.840006 53.384,71.64 C50.6479863,61.9919518 47.2400204,53.3760379 43.16,45.792 C37.7839731,35.7119496 32.4080269,27.8160286 27.032,22.104 C22.0879753,16.8239736 17.9360168,14.184 14.576,14.184 C12.5119897,14.184 10.8440064,14.8559933 9.572,16.2 C8.29999364,17.5440067 7.664,19.319989 7.664,21.528 C7.664,22.1040029 7.8439982,22.9199947 8.204,23.976 C8.5640018,25.0320053 8.744,25.7999976 8.744,26.28 C8.744,26.8560029 8.52800216,27.6839946 8.096,28.764 C7.66399784,29.8440054 7.3280012,30.384 7.088,30.384 C6.31999616,30.384 5.5760036,29.4960089 4.856,27.72 C3.99199568,25.6559897 3.56,23.2080142 3.56,20.376 C3.56,18.5999911 4.01599544,17.112006 4.928,15.912 C6.03200552,14.4239926 7.61598968,13.176005 9.68,12.168 C11.6000096,11.159995 13.3999916,10.656 15.08,10.656 C19.0640199,10.656 23.1679789,11.9759868 27.392,14.616 C31.7120216,17.4000139 35.7919808,21.3839741 39.632,26.568 C44.8640262,33.6720355 48.583989,42.0719515 50.792,51.768 C51.992006,56.9520259 53.3839921,62.0639748 54.968,67.104 C56.168006,70.9920194 56.768,73.1279981 56.768,73.512 L56.768,73.512 Z" id="a-b-c-d-e" fill="#3F3F3F" sketch:type="MSShapeGroup"></path>
    </g>
</svg>