<?xml version="1.0" encoding="UTF-8" standalone="no"?>
<svg width="76px" height="74px" viewBox="0 0 76 74" version="1.1" xmlns="http://www.w3.org/2000/svg" xmlns:xlink="http://www.w3.org/1999/xlink" xmlns:sketch="http://www.bohemiancoding.com/sketch/ns">
    <!-- Generator: Sketch Beta 3.1 (8603) - http://www.bohemiancoding.com/sketch -->
    <title>flor1</title>
    <desc>Created with Sketch Beta.</desc>
    <defs></defs>
    <g id="Page-1" stroke="none" stroke-width="1" fill="none" fill-rule="evenodd" sketch:type="MSPage">
        <path d="M39.168,9.36 L38.88,62.784 C38.88,63.7440048 38.5200036,64.224 37.8,64.224 C36.791995,64.224 36.2640002,63.7920043 36.216,62.928 C35.3999959,51.0719407 34.992,43.9920115 34.992,41.688 C34.992,37.7519803 35.1599983,32.4720331 35.496,25.848 C35.8320017,19.2239669 36,14.5680134 36,11.88 C36,10.487993 36.0719993,9.5520024 36.216,9.072 C36.408001,8.39999664 36.8399966,8.064 37.512,8.064 C38.1360031,8.064 38.6879976,8.49599568 39.168,9.36 L39.168,9.36 Z M67.032,12.312 C67.032,13.1280041 66.5760046,13.7039983 65.664,14.04 C64.4159938,14.4240019 63.192006,14.7839983 61.992,15.12 C59.8319892,15.7920034 58.3440041,17.1839894 57.528,19.296 C56.7599962,21.2160096 56.376,24.2159796 56.376,28.296 C56.376,29.6400067 56.6039977,31.7639855 57.06,34.668 C57.5160023,37.5720145 57.744,39.7679926 57.744,41.256 C57.744,43.4160108 57.4080034,46.1759832 56.736,49.536 C55.9679962,53.3760192 54.984006,56.6879861 53.784,59.472 C51.7679899,64.080023 49.6080115,67.7039868 47.304,70.344 C45.2399897,72.6480115 43.4160079,73.8 41.832,73.8 C40.7759947,73.8 39.8400041,73.2600054 39.024,72.18 C38.2079959,71.0999946 37.6080019,70.56 37.224,70.56 C36.6959974,70.56 36.1200031,71.0039956 35.496,71.892 C34.8719969,72.7800044 34.056005,73.224 33.048,73.224 C29.255981,73.224 25.8720149,70.4160281 22.896,64.8 C21.0719909,61.3439827 19.4880067,56.2560336 18.144,49.536 C17.6159974,46.8959868 17.352,44.7120086 17.352,42.984 C17.352,38.9999801 17.447999,34.9440206 17.64,30.816 C17.832001,26.6879794 17.928,24.528001 17.928,24.336 C17.928,20.4479806 16.8960103,17.7600074 14.832,16.272 C13.7279945,15.5039962 12.6480053,14.7360038 11.592,13.968 C10.7279957,13.3439969 10.296,12.8400019 10.296,12.456 C10.296,12.0719981 10.6319966,11.88 11.304,11.88 C13.0800089,11.88 15.0359893,12.6719921 17.172,14.256 C19.3080107,15.8400079 20.879995,17.6639897 21.888,19.728 C23.3280072,22.7040149 24.2639978,27.4319676 24.696,33.912 C24.9840014,41.0160355 25.2719986,48.1439642 25.56,55.296 C25.8480014,60.0480238 26.5439945,63.6719875 27.648,66.168 C28.656005,68.3280108 29.8799928,69.408 31.32,69.408 C31.8480026,69.408 32.112,68.8560055 32.112,67.752 C32.112,67.9920012 31.7520036,66.1920192 31.032,62.352 C30.1679957,58.0799786 29.5440019,53.3280262 29.16,48.096 L26.784,14.76 C26.784,11.351983 27.5759921,9.648 29.16,9.648 C30.6000072,9.648 31.4879983,11.3279832 31.824,14.688 C31.9200005,15.5520043 31.968,17.687983 31.968,21.096 L31.968,27.504 C31.968,40.6080655 32.4239954,50.15997 33.336,56.16 C34.2960048,62.4480314 35.8559892,65.592 38.016,65.592 L38.232,65.592 C38.3280005,65.5439998 38.3999998,65.52 38.448,65.52 C39.1200034,65.3759993 39.7919966,64.0560125 40.464,61.56 C41.1840036,58.7759861 41.544,55.6320175 41.544,52.128 L41.544,36.864 C41.544,34.271987 41.8079974,29.880031 42.336,23.688 C42.7680022,18.5999746 43.1519983,15.2640079 43.488,13.68 C43.8720019,11.5199892 44.4719959,10.44 45.288,10.44 C46.0080036,10.44 46.7279964,10.8959954 47.448,11.808 C48.2160038,12.8640053 48.6,14.1119928 48.6,15.552 C48.6,15.6480005 48.2400036,18.599971 47.52,24.408 C46.6559957,31.5120355 45.9120031,38.8799618 45.288,46.512 C44.9999986,50.112018 44.5200034,54.4559746 43.848,59.544 C43.2719971,63.6240204 42.984,66.2399942 42.984,67.392 C42.984,68.1120036 43.3439964,68.472 44.064,68.472 C45.1200053,68.472 46.151995,66.672018 47.16,63.072 C48.3120058,59.0399798 48.888,54.4080262 48.888,49.176 L48.888,37.728 C48.888,33.6479796 49.6559923,29.5440206 51.192,25.416 C52.6320072,21.4319801 54.5039885,18.1920125 56.808,15.696 C59.4960134,12.7679854 62.543983,11.304 65.952,11.304 C66.6720036,11.304 67.032,11.6399966 67.032,12.312 L67.032,12.312 Z M121.752,8.568 C121.752,8.71200072 121.248005,9.23999544 120.24,10.152 C118.991994,11.2560055 118.008004,12.3359947 117.288,13.392 C114.887988,16.992018 113.688,22.0799671 113.688,28.656 C113.688,31.1040122 114.383993,35.4479688 115.776,41.688 C117.168007,47.9280312 117.864,52.847982 117.864,56.448 C117.864,61.8240269 116.808011,66.0599845 114.696,69.156 C112.583989,72.2520155 109.728018,73.8 106.128,73.8 C102.863984,73.8 100.152011,71.5440226 97.992,67.032 C96.5519928,64.0079849 95.832,59.400031 95.832,53.208 L95.832,52.2 C95.832,49.8959885 96.3599947,45.4800326 97.416,38.952 C98.4720053,32.4239674 99,27.0960206 99,22.968 C99,18.167976 97.9440106,14.4240134 95.832,11.736 C95.7839998,11.6399995 95.160006,11.088005 93.96,10.08 C92.9999952,9.21599568 92.3040022,8.35200432 91.872,7.488 C92.3040022,7.0079976 92.7839974,6.768 93.312,6.768 C95.1840094,6.768 96.8639926,8.0879868 98.352,10.728 C99.9840082,13.7040149 100.943999,17.6399755 101.232,22.536 C101.28,25.2720137 101.471998,30.143965 101.808,37.152 C102.240002,43.5840322 102.456,48.7199808 102.456,52.56 C102.456,53.760006 102.372001,55.2959906 102.204,57.168 C102.035999,59.0400094 101.952,60.3119966 101.952,60.984 C101.952,65.3520218 102.839991,67.9679957 104.616,68.832 C105.336004,68.1119964 105.696,66.4800127 105.696,63.936 C105.696,61.4399875 105.372003,55.0320516 104.724,44.712 C104.075997,34.3919484 103.752,25.3680386 103.752,17.64 C103.752,12.2639731 104.639991,8.56801008 106.416,6.552 L107.568,6.552 C108.864006,7.89600672 109.512,10.6559791 109.512,14.832 C109.512,14.7359995 109.440001,16.0079868 109.296,18.648 C109.151999,21.5760146 109.032,24.6719837 108.936,27.936 L108.72,37.008 C108.672,38.0640053 108.576001,40.4159818 108.432,44.064 C108.336,46.9440144 108.288,49.2239916 108.288,50.904 L108.288,62.136 C108.288,66.6960228 108.719996,68.976 109.584,68.976 L109.728,68.976 C110.400003,68.976 111.035997,68.2200076 111.636,66.708 C112.236003,65.1959924 112.536,63.336011 112.536,61.128 C112.536,60.119995 112.200003,57.120025 111.528,52.128 C110.855997,47.135975 110.52,42.5280211 110.52,38.304 C110.52,29.3279551 111.599989,21.936029 113.76,16.128 C115.72801,10.7519731 118.127986,7.87200192 120.96,7.488 C121.488003,7.92000216 121.752,8.27999856 121.752,8.568 L121.752,8.568 Z M249.048,62.208 C249.048,62.5440017 248.784003,62.8799983 248.256,63.216 C247.727997,63.5520017 247.224002,63.72 246.744,63.72 C246.599999,63.72 246.072005,63.6000012 245.16,63.36 C244.247995,63.1199988 243.456003,63 242.784,63 C242.591999,63 242.124004,63.0479995 241.38,63.144 C240.635996,63.2400005 240.000003,63.288 239.472,63.288 C235.48798,63.288 231.288022,61.9680132 226.872,59.328 C222.215977,56.5439861 218.112018,52.7040245 214.56,47.808 C213.695996,46.6559942 212.496008,44.5920149 210.96,41.616 C209.567993,38.9279866 208.368005,36.9600062 207.36,35.712 C207.264,36.2400026 207.216,36.7439976 207.216,37.224 C207.216,37.9440036 208.583986,41.3519695 211.32,47.448 C213.432011,52.2000238 215.879986,56.879977 218.664,61.488 C220.824011,65.088018 221.904,66.9599993 221.904,67.104 C221.904,67.4400017 221.760001,67.608 221.472,67.608 C220.799997,67.608 219.288012,66.2880132 216.936,63.648 C214.007985,60.2879832 211.296012,56.2320238 208.8,51.48 C205.919986,45.9599724 203.424011,40.3200288 201.312,34.56 C199.775992,30.2879786 198.96,28.152 198.864,28.152 C198.479998,28.152 198.288,28.3919976 198.288,28.872 C198.288,31.6560139 200.111982,38.7359431 203.76,50.112 C205.344008,55.0080245 207.16799,59.6159784 209.232,63.936 C210.864008,67.2960168 211.68,69.0959988 211.68,69.336 C211.68,71.4960108 210.816009,72.576 209.088,72.576 C207.983994,72.576 206.736007,71.7480083 205.344,70.092 C203.951993,68.4359917 203.184001,67.608 203.04,67.608 C202.271996,67.608 201.888,68.4719914 201.888,70.2 L201.888,72.216 C201.888,73.8000079 200.184017,74.592 196.776,74.592 C192.887981,74.592 190.944,73.9680062 190.944,72.72 C190.944,72.1439971 191.027999,71.3880047 191.196,70.452 C191.364001,69.5159953 191.448,68.8800017 191.448,68.544 C191.448,68.2079983 191.208002,68.04 190.728,68.04 C190.535999,68.04 189.804006,68.7599928 188.532,70.2 C187.259994,71.6400072 186.168005,72.36 185.256,72.36 C184.727997,72.36 184.176003,71.9880037 183.6,71.244 C183.023997,70.4999963 182.736,69.7440038 182.736,68.976 C182.736,68.783999 183.263995,67.5120118 184.32,65.16 C185.856008,61.7039827 187.247994,58.4160156 188.496,55.296 C192.960022,44.0639438 195.192,36.3600209 195.192,32.184 C195.192,31.9439988 195.228,31.5840024 195.3,31.104 C195.372,30.6239976 195.408,30.2640012 195.408,30.024 C195.408,29.5919978 195.264001,29.376 194.976,29.376 C194.783999,29.376 194.328004,30.0479933 193.608,31.392 C192.455994,33.5040106 190.992009,37.0079755 189.216,41.904 C187.24799,47.2800269 185.640006,51.2879868 184.392,53.928 C182.615991,57.6240185 180.840009,60.7199875 179.064,63.216 C177.575993,65.2800103 176.592002,66.312 176.112,66.312 C175.583997,66.312 175.32,66.0000031 175.32,65.376 C175.32,64.8959976 175.799995,63.6720098 176.76,61.704 C179.208012,57.2399777 182.039984,51.8640314 185.256,45.576 C186.264005,43.175988 187.271995,40.776012 188.28,38.376 C189.144004,36.2639894 189.647999,34.6560055 189.792,33.552 L189.504,32.112 C189.119998,32.1600002 187.728012,34.5359765 185.328,39.24 C183.455991,42.8880182 180.360022,47.1599755 176.04,52.056 C173.783989,54.648013 169.992027,57.3119863 164.664,60.048 C163.079992,60.8640041 161.856004,61.272 160.992,61.272 C160.896,61.272 160.788001,61.2240005 160.668,61.128 C160.547999,61.0319995 160.416001,60.984 160.272,60.984 C160.224,60.984 159.360008,61.4279956 157.68,62.316 C155.999992,63.2040044 154.224009,63.648 152.352,63.648 C151.151994,63.648 150.144004,63.3600029 149.328,62.784 L149.256,61.128 C160.056054,56.135975 169.943955,48.4080523 178.92,37.944 C187.800044,27.6239484 192.24,21.3120115 192.24,19.008 C192.24,18.7199986 191.892003,18.0360054 191.196,16.956 C190.499997,15.8759946 190.152,14.8560048 190.152,13.896 C190.152,10.3439822 192.527976,8.568 197.28,8.568 C201.888023,8.568 204.192,10.4159815 204.192,14.112 C204.192,14.5440022 203.856003,15.2399952 203.184,16.2 C202.511997,17.1600048 202.176,17.8079983 202.176,18.144 C202.176,19.0560046 203.687985,21.7439777 206.712,26.208 C210.552019,31.8720283 215.279972,37.6799702 220.896,43.632 C224.97602,48.0000218 228.335987,51.1919899 230.976,53.208 C234.91202,56.1840149 239.231976,58.3199935 243.936,59.616 C245.040006,59.8560012 246.167994,60.1199986 247.32,60.408 C248.472006,60.6960014 249.048,61.2959954 249.048,62.208 L249.048,62.208 Z M343.872,71.424 C343.872,73.7280115 342.192017,74.88 338.832,74.88 C334.559979,74.88 329.976024,73.5600132 325.08,70.92 C319.751973,68.0399856 315.09602,64.0560254 311.112,58.968 L309.816,57.96 C309.72,62.568023 309.600001,67.1999767 309.456,71.856 C309.36,74.9280154 308.976003,76.464 308.304,76.464 C307.391995,76.464 306.744002,74.9280154 306.36,71.856 C306.215999,70.7519945 305.904002,66.1920401 305.424,58.176 C305.376,57.3119957 305.184002,56.88 304.848,56.88 C304.703999,56.88 304.368003,57.3599952 303.84,58.32 C303.023996,59.8080074 301.920007,61.3439921 300.528,62.928 C297.311984,66.5760182 293.67602,69.39599 289.62,71.388 C285.56398,73.38001 281.616019,74.376 277.776,74.376 C276.335993,74.376 275.100005,73.8960048 274.068,72.936 C273.035995,71.9759952 272.52,70.9440055 272.52,69.84 C272.52,68.5439935 273.263993,67.5360036 274.752,66.816 C277.584014,65.3759928 279.215998,64.4880017 279.648,64.152 C279.503999,64.0559995 277.824016,63.0000101 274.608,60.984 C272.975992,59.975995 272.16,58.8000067 272.16,57.456 C272.16,56.5439954 272.555996,55.692004 273.348,54.9 C274.140004,54.107996 274.991995,53.712 275.904,53.712 C275.279997,53.712 276.98398,54.1319958 281.016,54.972 C285.04802,55.8120042 289.535975,56.232 294.48,56.232 C296.304009,56.232 297.815994,55.9680026 299.016,55.44 C300.216006,54.9119974 300.816,54.3120034 300.816,53.64 C300.816,52.9679966 300.456004,52.4160022 299.736,51.984 C298.871996,51.791999 298.032004,51.600001 297.216,51.408 C295.19999,50.8319971 293.136011,49.8720067 291.024,48.528 C287.03998,45.9839873 283.800012,42.6720204 281.304,38.592 C278.951988,34.6559803 277.776,30.8640182 277.776,27.216 C277.776,24.9599887 278.711991,23.832 280.584,23.832 C281.640005,23.832 282.419997,24.3959944 282.924,25.524 C283.428003,26.6520056 284.039996,27.216 284.76,27.216 C285.624004,27.216 286.056,26.2560096 286.056,24.336 L286.056,22.248 C286.056,18.9359834 287.135989,17.28 289.296,17.28 C290.352005,17.28 291.227997,17.6519963 291.924,18.396 C292.620003,19.1400037 292.968,20.0639945 292.968,21.168 C292.968,21.360001 292.896001,21.8999956 292.752,22.788 C292.607999,23.6760044 292.536,24.4799964 292.536,25.2 C292.536,32.6400372 293.687988,38.6159774 295.992,43.128 C298.152011,47.4960218 300.911983,49.68 304.272,49.68 C305.184005,49.68 305.64,49.3920029 305.64,48.816 C305.64,48.5759988 305.280004,48.0720038 304.56,47.304 C303.647995,46.295995 302.928003,45.3600043 302.4,44.496 C301.055993,42.287989 299.880005,38.9760221 298.872,34.56 C297.719994,29.6639755 297.144,24.8400238 297.144,20.088 C297.144,18.2639909 297.479997,16.7160064 298.152,15.444 C298.824003,14.1719936 299.519996,13.536 300.24,13.536 C301.152005,13.536 302.147995,14.2559928 303.228,15.696 C304.308005,17.1360072 305.039998,17.9279993 305.424,18.072 C305.568001,17.4959971 305.64,16.8720034 305.64,16.2 C305.64,15.2879954 305.568001,14.2560058 305.424,13.104 C305.279999,11.9519942 305.208,11.2560012 305.208,11.016 C305.208,10.007995 305.483997,9.13200372 306.036,8.388 C306.588003,7.64399628 307.199997,7.272 307.872,7.272 C309.744009,7.272 310.68,8.66398608 310.68,11.448 C310.68,12.0240029 310.620001,12.8879942 310.5,14.04 C310.379999,15.1920058 310.32,16.0559971 310.32,16.632 C310.32,16.7760007 310.368,17.1839966 310.464,17.856 C310.992003,17.5679986 311.759995,16.7760065 312.768,15.48 C313.632004,14.3759945 314.375997,13.824 315,13.824 C316.536008,13.824 317.495998,15.8159801 317.88,19.8 C318.024001,21.1440067 318.096,23.8799794 318.096,28.008 C318.096,34.2960314 315.720024,41.4239602 310.968,49.392 C311.112001,49.7760019 311.495997,49.968 312.12,49.968 C315.240016,49.968 317.615992,48.2880168 319.248,44.928 C320.880008,41.5679832 321.959997,36.384035 322.488,29.376 C322.584,28.0319933 322.632,26.9520041 322.632,26.136 L322.632,24.696 C322.584,24.0719969 322.56,23.6160014 322.56,23.328 C322.56,18.8639777 323.903987,16.632 326.592,16.632 C327.648005,16.632 328.415998,17.231994 328.896,18.432 C329.184001,19.2960043 329.471999,21.0479868 329.76,23.688 C330.096002,26.9040161 330.383999,28.512 330.624,28.512 C330.960002,28.512 331.271999,28.0800043 331.56,27.216 C331.944002,26.1119945 332.327998,24.9840058 332.712,23.832 C333.144002,22.9679957 333.839995,22.536 334.8,22.536 C335.712005,22.536 336.515997,23.0039953 337.212,23.94 C337.908003,24.8760047 338.256,25.9679938 338.256,27.216 C338.256,30.4320161 337.032012,34.0799796 334.584,38.16 C330.59998,44.8320334 326.064025,49.0079916 320.976,50.688 C319.727994,50.9760014 318.480006,51.2879983 317.232,51.624 C315.695992,52.0080019 314.592003,52.6079959 313.92,53.424 L313.92,53.496 C313.92,54.0720029 314.663993,54.6719969 316.152,55.296 C317.640007,55.9200031 319.39199,56.232 321.408,56.232 C324.000013,56.232 327.155981,55.9680026 330.876,55.44 C334.596019,54.9119974 337.007994,54.648 338.112,54.648 C340.896014,54.648 342.288,55.9919866 342.288,58.68 C342.288,60.2160077 340.968013,61.583994 338.328,62.784 C338.28,62.784 337.536007,63.0719971 336.096,63.648 C335.663998,63.840001 335.448,64.031999 335.448,64.224 C335.448,64.8480031 336.047994,65.4959966 337.248,66.168 C338.688007,66.7920031 340.151993,67.3919971 341.64,67.968 C343.128007,68.7360038 343.872,69.8879923 343.872,71.424 L343.872,71.424 Z M482.4,21.024 C482.4,22.5600077 482.256001,24.0719926 481.968,25.56 C481.679999,27.0480074 481.536,27.8159998 481.536,27.864 C481.536,27.9600005 481.56,28.1759983 481.608,28.512 L481.608,29.376 C481.608,31.776012 481.032006,32.976 479.88,32.976 C478.343992,32.976 477.576,31.5600142 477.576,28.728 C477.576,27.1919923 477.899997,25.3320109 478.548,23.148 C479.196003,20.9639891 479.52,19.5600031 479.52,18.936 C479.52,17.8799947 478.788007,16.8240053 477.324,15.768 C475.859993,14.7119947 474.528006,14.184 473.328,14.184 C468.623976,14.184 463.440028,17.0399714 457.776,22.752 C451.919971,28.7040298 446.064029,37.2239446 440.208,48.312 C438.095989,52.3440202 436.296007,56.7119765 434.808,61.416 C433.559994,65.4480202 432.672003,68.9519851 432.144,71.928 C431.951999,72.936005 431.808,73.5599988 431.712,73.8 C431.423999,74.2800024 430.872004,74.6399988 430.056,74.88 C429.815999,74.4959981 429.696,74.1120019 429.696,73.728 C429.696,73.4399986 429.887998,72.5040079 430.272,70.92 C430.752002,68.6639887 431.159998,66.6720086 431.496,64.944 C431.736001,62.351987 432.575993,57.5040355 434.016,50.4 C437.280016,37.6799364 442.127968,27.816035 448.56,20.808 C454.848031,14.0399662 461.927961,10.656 469.8,10.656 C473.544019,10.656 476.579988,11.6399902 478.908,13.608 C481.236012,15.5760098 482.4,18.0479851 482.4,21.024 L482.4,21.024 Z M439.272,20.376 C439.272,21.0000031 438.600007,22.7279858 437.256,25.56 C435.33599,29.4960197 433.776006,33.1199834 432.576,36.432 C431.567995,39.2640142 430.728003,43.175975 430.056,48.168 C429.719998,50.6160122 429.144004,56.135957 428.328,64.728 C428.183999,66.5040089 428.016001,68.2799911 427.824,70.056 C427.679999,71.3040062 427.392002,71.928 426.96,71.928 C426.383997,71.928 426.096,70.5600137 426.096,67.824 C426.096,67.2479971 426.12,66.4320053 426.168,65.376 C426.216,64.3199947 426.24,63.5280026 426.24,63 L426.24,62.424 C426.24,55.2719642 425.952003,49.3440235 425.376,44.64 C424.847997,40.5599796 424.296003,38.52 423.72,38.52 C423.191997,38.52 422.928,39.3119921 422.928,40.896 C422.928,40.7519993 422.999999,41.6639902 423.144,43.632 C423.288001,45.8880113 423.384,48.3839863 423.432,51.12 C423.48,52.8000084 423.671998,55.343983 424.008,58.752 C424.296001,61.9200158 424.44,64.3199918 424.44,65.952 C424.44,71.95203 424.224002,74.952 423.792,74.952 L423.648,74.952 C422.735995,74.952 422.160001,73.656013 421.92,71.064 C421.631999,67.2239808 421.368001,63.3600194 421.128,59.472 C420.743998,54.6239758 419.880007,50.0640214 418.536,45.792 C418.055998,44.3039926 415.968018,38.9760458 412.272,29.808 C409.727987,23.5199686 408.456,20.1120026 408.456,19.584 C408.456,18.9119966 408.755997,18.276003 409.356,17.676 C409.956003,17.075997 410.519997,16.776 411.048,16.776 C411.432002,16.776 412.151995,17.1239965 413.208,17.82 C414.264005,18.5160035 414.959998,18.864 415.296,18.864 C415.584001,18.864 415.991997,18.4800038 416.52,17.712 C417.240004,16.6559947 417.959996,15.6000053 418.68,14.544 C420.69601,11.7119858 422.231995,10.296 423.288,10.296 C424.104004,10.296 424.799997,10.5599974 425.376,11.088 C425.664001,11.3760014 426.263995,12.0959942 427.176,13.248 C427.320001,13.440001 428.279991,14.735988 430.056,17.136 C430.728003,18.0960048 431.183999,18.576 431.424,18.576 C431.712001,18.576 432.395995,18.2040037 433.476,17.46 C434.556005,16.7159963 435.263998,16.344 435.6,16.344 C436.512005,16.344 437.351996,16.7639958 438.12,17.604 C438.888004,18.4440042 439.272,19.367995 439.272,20.376 L439.272,20.376 Z M420.768,73.512 C420.768,74.3280041 420.360004,74.736 419.544,74.736 C418.919997,74.736 418.464001,74.4720026 418.176,73.944 C417.983999,73.6079983 417.720002,72.840006 417.384,71.64 C414.647986,61.9919518 411.24002,53.3760379 407.16,45.792 C401.783973,35.7119496 396.408027,27.8160286 391.032,22.104 C386.087975,16.8239736 381.936017,14.184 378.576,14.184 C376.51199,14.184 374.844006,14.8559933 373.572,16.2 C372.299994,17.5440067 371.664,19.319989 371.664,21.528 C371.664,22.1040029 371.843998,22.9199947 372.204,23.976 C372.564002,25.0320053 372.744,25.7999976 372.744,26.28 C372.744,26.8560029 372.528002,27.6839946 372.096,28.764 C371.663998,29.8440054 371.328001,30.384 371.088,30.384 C370.319996,30.384 369.576004,29.4960089 368.856,27.72 C367.991996,25.6559897 367.56,23.2080142 367.56,20.376 C367.56,18.5999911 368.015995,17.112006 368.928,15.912 C370.032006,14.4239926 371.61599,13.176005 373.68,12.168 C375.60001,11.159995 377.399992,10.656 379.08,10.656 C383.06402,10.656 387.167979,11.9759868 391.392,14.616 C395.712022,17.4000139 399.791981,21.3839741 403.632,26.568 C408.864026,33.6720355 412.583989,42.0719515 414.792,51.768 C415.992006,56.9520259 417.383992,62.0639748 418.968,67.104 C420.168006,70.9920194 420.768,73.1279981 420.768,73.512 L420.768,73.512 Z" id="a-b-c-d-e" fill="#3F3F3F" sketch:type="MSShapeGroup"></path>
    </g>
</svg>