<?xml version="1.0" encoding="UTF-8" standalone="no"?>
<svg width="40px" height="80px" viewBox="0 0 40 80" version="1.1" xmlns="http://www.w3.org/2000/svg" xmlns:xlink="http://www.w3.org/1999/xlink" xmlns:sketch="http://www.bohemiancoding.com/sketch/ns">
    <!-- Generator: Sketch Beta 3.1 (8603) - http://www.bohemiancoding.com/sketch -->
    <title>flor2</title>
    <desc>Created with Sketch Beta.</desc>
    <defs></defs>
    <g id="Page-1" stroke="none" stroke-width="1" fill="none" fill-rule="evenodd" sketch:type="MSPage">
        <path d="M-46.832,9.36 L-47.12,62.784 C-47.12,63.7440048 -47.4799964,64.224 -48.2,64.224 C-49.208005,64.224 -49.7359998,63.7920043 -49.784,62.928 C-50.6000041,51.0719407 -51.008,43.9920115 -51.008,41.688 C-51.008,37.7519803 -50.8400017,32.4720331 -50.504,25.848 C-50.1679983,19.2239669 -50,14.5680134 -50,11.88 C-50,10.487993 -49.9280007,9.5520024 -49.784,9.072 C-49.591999,8.39999664 -49.1600034,8.064 -48.488,8.064 C-47.8639969,8.064 -47.3120024,8.49599568 -46.832,9.36 L-46.832,9.36 Z M-18.968,12.312 C-18.968,13.1280041 -19.4239954,13.7039983 -20.336,14.04 C-21.5840062,14.4240019 -22.807994,14.7839983 -24.008,15.12 C-26.1680108,15.7920034 -27.6559959,17.1839894 -28.472,19.296 C-29.2400038,21.2160096 -29.624,24.2159796 -29.624,28.296 C-29.624,29.6400067 -29.3960023,31.7639855 -28.94,34.668 C-28.4839977,37.5720145 -28.256,39.7679926 -28.256,41.256 C-28.256,43.4160108 -28.5919966,46.1759832 -29.264,49.536 C-30.0320038,53.3760192 -31.015994,56.6879861 -32.216,59.472 C-34.2320101,64.080023 -36.3919885,67.7039868 -38.696,70.344 C-40.7600103,72.6480115 -42.5839921,73.8 -44.168,73.8 C-45.2240053,73.8 -46.1599959,73.2600054 -46.976,72.18 C-47.7920041,71.0999946 -48.3919981,70.56 -48.776,70.56 C-49.3040026,70.56 -49.8799969,71.0039956 -50.504,71.892 C-51.1280031,72.7800044 -51.943995,73.224 -52.952,73.224 C-56.744019,73.224 -60.1279851,70.4160281 -63.104,64.8 C-64.9280091,61.3439827 -66.5119933,56.2560336 -67.856,49.536 C-68.3840026,46.8959868 -68.648,44.7120086 -68.648,42.984 C-68.648,38.9999801 -68.552001,34.9440206 -68.36,30.816 C-68.167999,26.6879794 -68.072,24.528001 -68.072,24.336 C-68.072,20.4479806 -69.1039897,17.7600074 -71.168,16.272 C-72.2720055,15.5039962 -73.3519947,14.7360038 -74.408,13.968 C-75.2720043,13.3439969 -75.704,12.8400019 -75.704,12.456 C-75.704,12.0719981 -75.3680034,11.88 -74.696,11.88 C-72.9199911,11.88 -70.9640107,12.6719921 -68.828,14.256 C-66.6919893,15.8400079 -65.120005,17.6639897 -64.112,19.728 C-62.6719928,22.7040149 -61.7360022,27.4319676 -61.304,33.912 C-61.0159986,41.0160355 -60.7280014,48.1439642 -60.44,55.296 C-60.1519986,60.0480238 -59.4560055,63.6719875 -58.352,66.168 C-57.343995,68.3280108 -56.1200072,69.408 -54.68,69.408 C-54.1519974,69.408 -53.888,68.8560055 -53.888,67.752 C-53.888,67.9920012 -54.2479964,66.1920192 -54.968,62.352 C-55.8320043,58.0799786 -56.4559981,53.3280262 -56.84,48.096 L-59.216,14.76 C-59.216,11.351983 -58.4240079,9.648 -56.84,9.648 C-55.3999928,9.648 -54.5120017,11.3279832 -54.176,14.688 C-54.0799995,15.5520043 -54.032,17.687983 -54.032,21.096 L-54.032,27.504 C-54.032,40.6080655 -53.5760046,50.15997 -52.664,56.16 C-51.7039952,62.4480314 -50.1440108,65.592 -47.984,65.592 L-47.768,65.592 C-47.6719995,65.5439998 -47.6000002,65.52 -47.552,65.52 C-46.8799966,65.3759993 -46.2080034,64.0560125 -45.536,61.56 C-44.8159964,58.7759861 -44.456,55.6320175 -44.456,52.128 L-44.456,36.864 C-44.456,34.271987 -44.1920026,29.880031 -43.664,23.688 C-43.2319978,18.5999746 -42.8480017,15.2640079 -42.512,13.68 C-42.1279981,11.5199892 -41.5280041,10.44 -40.712,10.44 C-39.9919964,10.44 -39.2720036,10.8959954 -38.552,11.808 C-37.7839962,12.8640053 -37.4,14.1119928 -37.4,15.552 C-37.4,15.6480005 -37.7599964,18.599971 -38.48,24.408 C-39.3440043,31.5120355 -40.0879969,38.8799618 -40.712,46.512 C-41.0000014,50.112018 -41.4799966,54.4559746 -42.152,59.544 C-42.7280029,63.6240204 -43.016,66.2399942 -43.016,67.392 C-43.016,68.1120036 -42.6560036,68.472 -41.936,68.472 C-40.8799947,68.472 -39.848005,66.672018 -38.84,63.072 C-37.6879942,59.0399798 -37.112,54.4080262 -37.112,49.176 L-37.112,37.728 C-37.112,33.6479796 -36.3440077,29.5440206 -34.808,25.416 C-33.3679928,21.4319801 -31.4960115,18.1920125 -29.192,15.696 C-26.5039866,12.7679854 -23.456017,11.304 -20.048,11.304 C-19.3279964,11.304 -18.968,11.6399966 -18.968,12.312 L-18.968,12.312 Z M35.752,8.568 C35.752,8.71200072 35.248005,9.23999544 34.24,10.152 C32.9919938,11.2560055 32.0080036,12.3359947 31.288,13.392 C28.887988,16.992018 27.688,22.0799671 27.688,28.656 C27.688,31.1040122 28.383993,35.4479688 29.776,41.688 C31.168007,47.9280312 31.864,52.847982 31.864,56.448 C31.864,61.8240269 30.8080106,66.0599845 28.696,69.156 C26.5839894,72.2520155 23.728018,73.8 20.128,73.8 C16.8639837,73.8 14.1520108,71.5440226 11.992,67.032 C10.5519928,64.0079849 9.832,59.400031 9.832,53.208 L9.832,52.2 C9.832,49.8959885 10.3599947,45.4800326 11.416,38.952 C12.4720053,32.4239674 13,27.0960206 13,22.968 C13,18.167976 11.9440106,14.4240134 9.832,11.736 C9.78399976,11.6399995 9.160006,11.088005 7.96,10.08 C6.9999952,9.21599568 6.30400216,8.35200432 5.872,7.488 C6.30400216,7.0079976 6.78399736,6.768 7.312,6.768 C9.18400936,6.768 10.8639926,8.0879868 12.352,10.728 C13.9840082,13.7040149 14.9439986,17.6399755 15.232,22.536 C15.2800002,25.2720137 15.4719983,30.143965 15.808,37.152 C16.2400022,43.5840322 16.456,48.7199808 16.456,52.56 C16.456,53.760006 16.3720008,55.2959906 16.204,57.168 C16.0359992,59.0400094 15.952,60.3119966 15.952,60.984 C15.952,65.3520218 16.8399911,67.9679957 18.616,68.832 C19.3360036,68.1119964 19.696,66.4800127 19.696,63.936 C19.696,61.4399875 19.3720032,55.0320516 18.724,44.712 C18.0759968,34.3919484 17.752,25.3680386 17.752,17.64 C17.752,12.2639731 18.6399911,8.56801008 20.416,6.552 L21.568,6.552 C22.8640065,7.89600672 23.512,10.6559791 23.512,14.832 C23.512,14.7359995 23.4400007,16.0079868 23.296,18.648 C23.1519993,21.5760146 23.0320005,24.6719837 22.936,27.936 L22.72,37.008 C22.6719998,38.0640053 22.5760007,40.4159818 22.432,44.064 C22.3359995,46.9440144 22.288,49.2239916 22.288,50.904 L22.288,62.136 C22.288,66.6960228 22.7199957,68.976 23.584,68.976 L23.728,68.976 C24.4000034,68.976 25.035997,68.2200076 25.636,66.708 C26.236003,65.1959924 26.536,63.336011 26.536,61.128 C26.536,60.119995 26.2000034,57.120025 25.528,52.128 C24.8559966,47.135975 24.52,42.5280211 24.52,38.304 C24.52,29.3279551 25.5999892,21.936029 27.76,16.128 C29.7280098,10.7519731 32.1279858,7.87200192 34.96,7.488 C35.4880026,7.92000216 35.752,8.27999856 35.752,8.568 L35.752,8.568 Z M163.048,62.208 C163.048,62.5440017 162.784003,62.8799983 162.256,63.216 C161.727997,63.5520017 161.224002,63.72 160.744,63.72 C160.599999,63.72 160.072005,63.6000012 159.16,63.36 C158.247995,63.1199988 157.456003,63 156.784,63 C156.591999,63 156.124004,63.0479995 155.38,63.144 C154.635996,63.2400005 154.000003,63.288 153.472,63.288 C149.48798,63.288 145.288022,61.9680132 140.872,59.328 C136.215977,56.5439861 132.112018,52.7040245 128.56,47.808 C127.695996,46.6559942 126.496008,44.5920149 124.96,41.616 C123.567993,38.9279866 122.368005,36.9600062 121.36,35.712 C121.264,36.2400026 121.216,36.7439976 121.216,37.224 C121.216,37.9440036 122.583986,41.3519695 125.32,47.448 C127.432011,52.2000238 129.879986,56.879977 132.664,61.488 C134.824011,65.088018 135.904,66.9599993 135.904,67.104 C135.904,67.4400017 135.760001,67.608 135.472,67.608 C134.799997,67.608 133.288012,66.2880132 130.936,63.648 C128.007985,60.2879832 125.296012,56.2320238 122.8,51.48 C119.919986,45.9599724 117.424011,40.3200288 115.312,34.56 C113.775992,30.2879786 112.96,28.152 112.864,28.152 C112.479998,28.152 112.288,28.3919976 112.288,28.872 C112.288,31.6560139 114.111982,38.7359431 117.76,50.112 C119.344008,55.0080245 121.16799,59.6159784 123.232,63.936 C124.864008,67.2960168 125.68,69.0959988 125.68,69.336 C125.68,71.4960108 124.816009,72.576 123.088,72.576 C121.983994,72.576 120.736007,71.7480083 119.344,70.092 C117.951993,68.4359917 117.184001,67.608 117.04,67.608 C116.271996,67.608 115.888,68.4719914 115.888,70.2 L115.888,72.216 C115.888,73.8000079 114.184017,74.592 110.776,74.592 C106.887981,74.592 104.944,73.9680062 104.944,72.72 C104.944,72.1439971 105.027999,71.3880047 105.196,70.452 C105.364001,69.5159953 105.448,68.8800017 105.448,68.544 C105.448,68.2079983 105.208002,68.04 104.728,68.04 C104.535999,68.04 103.804006,68.7599928 102.532,70.2 C101.259994,71.6400072 100.168005,72.36 99.256,72.36 C98.7279974,72.36 98.1760029,71.9880037 97.6,71.244 C97.0239971,70.4999963 96.736,69.7440038 96.736,68.976 C96.736,68.783999 97.2639947,67.5120118 98.32,65.16 C99.8560077,61.7039827 101.247994,58.4160156 102.496,55.296 C106.960022,44.0639438 109.192,36.3600209 109.192,32.184 C109.192,31.9439988 109.228,31.5840024 109.3,31.104 C109.372,30.6239976 109.408,30.2640012 109.408,30.024 C109.408,29.5919978 109.264001,29.376 108.976,29.376 C108.783999,29.376 108.328004,30.0479933 107.608,31.392 C106.455994,33.5040106 104.992009,37.0079755 103.216,41.904 C101.24799,47.2800269 99.6400062,51.2879868 98.392,53.928 C96.6159911,57.6240185 94.8400089,60.7199875 93.064,63.216 C91.5759926,65.2800103 90.5920024,66.312 90.112,66.312 C89.5839974,66.312 89.32,66.0000031 89.32,65.376 C89.32,64.8959976 89.7999952,63.6720098 90.76,61.704 C93.2080122,57.2399777 96.0399839,51.8640314 99.256,45.576 C100.264005,43.175988 101.271995,40.776012 102.28,38.376 C103.144004,36.2639894 103.647999,34.6560055 103.792,33.552 L103.504,32.112 C103.119998,32.1600002 101.728012,34.5359765 99.328,39.24 C97.4559906,42.8880182 94.3600216,47.1599755 90.04,52.056 C87.7839887,54.648013 83.9920266,57.3119863 78.664,60.048 C77.0799921,60.8640041 75.8560043,61.272 74.992,61.272 C74.8959995,61.272 74.7880006,61.2240005 74.668,61.128 C74.5479994,61.0319995 74.4160007,60.984 74.272,60.984 C74.2239998,60.984 73.3600084,61.4279956 71.68,62.316 C69.9999916,63.2040044 68.2240094,63.648 66.352,63.648 C65.151994,63.648 64.1440041,63.3600029 63.328,62.784 L63.256,61.128 C74.056054,56.135975 83.9439551,48.4080523 92.92,37.944 C101.800044,27.6239484 106.24,21.3120115 106.24,19.008 C106.24,18.7199986 105.892003,18.0360054 105.196,16.956 C104.499997,15.8759946 104.152,14.8560048 104.152,13.896 C104.152,10.3439822 106.527976,8.568 111.28,8.568 C115.888023,8.568 118.192,10.4159815 118.192,14.112 C118.192,14.5440022 117.856003,15.2399952 117.184,16.2 C116.511997,17.1600048 116.176,17.8079983 116.176,18.144 C116.176,19.0560046 117.687985,21.7439777 120.712,26.208 C124.552019,31.8720283 129.279972,37.6799702 134.896,43.632 C138.97602,48.0000218 142.335987,51.1919899 144.976,53.208 C148.91202,56.1840149 153.231976,58.3199935 157.936,59.616 C159.040006,59.8560012 160.167994,60.1199986 161.32,60.408 C162.472006,60.6960014 163.048,61.2959954 163.048,62.208 L163.048,62.208 Z M257.872,71.424 C257.872,73.7280115 256.192017,74.88 252.832,74.88 C248.559979,74.88 243.976024,73.5600132 239.08,70.92 C233.751973,68.0399856 229.09602,64.0560254 225.112,58.968 L223.816,57.96 C223.72,62.568023 223.600001,67.1999767 223.456,71.856 C223.36,74.9280154 222.976003,76.464 222.304,76.464 C221.391995,76.464 220.744002,74.9280154 220.36,71.856 C220.215999,70.7519945 219.904002,66.1920401 219.424,58.176 C219.376,57.3119957 219.184002,56.88 218.848,56.88 C218.703999,56.88 218.368003,57.3599952 217.84,58.32 C217.023996,59.8080074 215.920007,61.3439921 214.528,62.928 C211.311984,66.5760182 207.67602,69.39599 203.62,71.388 C199.56398,73.38001 195.616019,74.376 191.776,74.376 C190.335993,74.376 189.100005,73.8960048 188.068,72.936 C187.035995,71.9759952 186.52,70.9440055 186.52,69.84 C186.52,68.5439935 187.263993,67.5360036 188.752,66.816 C191.584014,65.3759928 193.215998,64.4880017 193.648,64.152 C193.503999,64.0559995 191.824016,63.0000101 188.608,60.984 C186.975992,59.975995 186.16,58.8000067 186.16,57.456 C186.16,56.5439954 186.555996,55.692004 187.348,54.9 C188.140004,54.107996 188.991995,53.712 189.904,53.712 C189.279997,53.712 190.98398,54.1319958 195.016,54.972 C199.04802,55.8120042 203.535975,56.232 208.48,56.232 C210.304009,56.232 211.815994,55.9680026 213.016,55.44 C214.216006,54.9119974 214.816,54.3120034 214.816,53.64 C214.816,52.9679966 214.456004,52.4160022 213.736,51.984 C212.871996,51.791999 212.032004,51.600001 211.216,51.408 C209.19999,50.8319971 207.136011,49.8720067 205.024,48.528 C201.03998,45.9839873 197.800012,42.6720204 195.304,38.592 C192.951988,34.6559803 191.776,30.8640182 191.776,27.216 C191.776,24.9599887 192.711991,23.832 194.584,23.832 C195.640005,23.832 196.419997,24.3959944 196.924,25.524 C197.428003,26.6520056 198.039996,27.216 198.76,27.216 C199.624004,27.216 200.056,26.2560096 200.056,24.336 L200.056,22.248 C200.056,18.9359834 201.135989,17.28 203.296,17.28 C204.352005,17.28 205.227997,17.6519963 205.924,18.396 C206.620003,19.1400037 206.968,20.0639945 206.968,21.168 C206.968,21.360001 206.896001,21.8999956 206.752,22.788 C206.607999,23.6760044 206.536,24.4799964 206.536,25.2 C206.536,32.6400372 207.687988,38.6159774 209.992,43.128 C212.152011,47.4960218 214.911983,49.68 218.272,49.68 C219.184005,49.68 219.64,49.3920029 219.64,48.816 C219.64,48.5759988 219.280004,48.0720038 218.56,47.304 C217.647995,46.295995 216.928003,45.3600043 216.4,44.496 C215.055993,42.287989 213.880005,38.9760221 212.872,34.56 C211.719994,29.6639755 211.144,24.8400238 211.144,20.088 C211.144,18.2639909 211.479997,16.7160064 212.152,15.444 C212.824003,14.1719936 213.519996,13.536 214.24,13.536 C215.152005,13.536 216.147995,14.2559928 217.228,15.696 C218.308005,17.1360072 219.039998,17.9279993 219.424,18.072 C219.568001,17.4959971 219.64,16.8720034 219.64,16.2 C219.64,15.2879954 219.568001,14.2560058 219.424,13.104 C219.279999,11.9519942 219.208,11.2560012 219.208,11.016 C219.208,10.007995 219.483997,9.13200372 220.036,8.388 C220.588003,7.64399628 221.199997,7.272 221.872,7.272 C223.744009,7.272 224.68,8.66398608 224.68,11.448 C224.68,12.0240029 224.620001,12.8879942 224.5,14.04 C224.379999,15.1920058 224.32,16.0559971 224.32,16.632 C224.32,16.7760007 224.368,17.1839966 224.464,17.856 C224.992003,17.5679986 225.759995,16.7760065 226.768,15.48 C227.632004,14.3759945 228.375997,13.824 229,13.824 C230.536008,13.824 231.495998,15.8159801 231.88,19.8 C232.024001,21.1440067 232.096,23.8799794 232.096,28.008 C232.096,34.2960314 229.720024,41.4239602 224.968,49.392 C225.112001,49.7760019 225.495997,49.968 226.12,49.968 C229.240016,49.968 231.615992,48.2880168 233.248,44.928 C234.880008,41.5679832 235.959997,36.384035 236.488,29.376 C236.584,28.0319933 236.632,26.9520041 236.632,26.136 L236.632,24.696 C236.584,24.0719969 236.56,23.6160014 236.56,23.328 C236.56,18.8639777 237.903987,16.632 240.592,16.632 C241.648005,16.632 242.415998,17.231994 242.896,18.432 C243.184001,19.2960043 243.471999,21.0479868 243.76,23.688 C244.096002,26.9040161 244.383999,28.512 244.624,28.512 C244.960002,28.512 245.271999,28.0800043 245.56,27.216 C245.944002,26.1119945 246.327998,24.9840058 246.712,23.832 C247.144002,22.9679957 247.839995,22.536 248.8,22.536 C249.712005,22.536 250.515997,23.0039953 251.212,23.94 C251.908003,24.8760047 252.256,25.9679938 252.256,27.216 C252.256,30.4320161 251.032012,34.0799796 248.584,38.16 C244.59998,44.8320334 240.064025,49.0079916 234.976,50.688 C233.727994,50.9760014 232.480006,51.2879983 231.232,51.624 C229.695992,52.0080019 228.592003,52.6079959 227.92,53.424 L227.92,53.496 C227.92,54.0720029 228.663993,54.6719969 230.152,55.296 C231.640007,55.9200031 233.39199,56.232 235.408,56.232 C238.000013,56.232 241.155981,55.9680026 244.876,55.44 C248.596019,54.9119974 251.007994,54.648 252.112,54.648 C254.896014,54.648 256.288,55.9919866 256.288,58.68 C256.288,60.2160077 254.968013,61.583994 252.328,62.784 C252.28,62.784 251.536007,63.0719971 250.096,63.648 C249.663998,63.840001 249.448,64.031999 249.448,64.224 C249.448,64.8480031 250.047994,65.4959966 251.248,66.168 C252.688007,66.7920031 254.151993,67.3919971 255.64,67.968 C257.128007,68.7360038 257.872,69.8879923 257.872,71.424 L257.872,71.424 Z M396.4,21.024 C396.4,22.5600077 396.256001,24.0719926 395.968,25.56 C395.679999,27.0480074 395.536,27.8159998 395.536,27.864 C395.536,27.9600005 395.56,28.1759983 395.608,28.512 L395.608,29.376 C395.608,31.776012 395.032006,32.976 393.88,32.976 C392.343992,32.976 391.576,31.5600142 391.576,28.728 C391.576,27.1919923 391.899997,25.3320109 392.548,23.148 C393.196003,20.9639891 393.52,19.5600031 393.52,18.936 C393.52,17.8799947 392.788007,16.8240053 391.324,15.768 C389.859993,14.7119947 388.528006,14.184 387.328,14.184 C382.623976,14.184 377.440028,17.0399714 371.776,22.752 C365.919971,28.7040298 360.064029,37.2239446 354.208,48.312 C352.095989,52.3440202 350.296007,56.7119765 348.808,61.416 C347.559994,65.4480202 346.672003,68.9519851 346.144,71.928 C345.951999,72.936005 345.808,73.5599988 345.712,73.8 C345.423999,74.2800024 344.872004,74.6399988 344.056,74.88 C343.815999,74.4959981 343.696,74.1120019 343.696,73.728 C343.696,73.4399986 343.887998,72.5040079 344.272,70.92 C344.752002,68.6639887 345.159998,66.6720086 345.496,64.944 C345.736001,62.351987 346.575993,57.5040355 348.016,50.4 C351.280016,37.6799364 356.127968,27.816035 362.56,20.808 C368.848031,14.0399662 375.927961,10.656 383.8,10.656 C387.544019,10.656 390.579988,11.6399902 392.908,13.608 C395.236012,15.5760098 396.4,18.0479851 396.4,21.024 L396.4,21.024 Z M353.272,20.376 C353.272,21.0000031 352.600007,22.7279858 351.256,25.56 C349.33599,29.4960197 347.776006,33.1199834 346.576,36.432 C345.567995,39.2640142 344.728003,43.175975 344.056,48.168 C343.719998,50.6160122 343.144004,56.135957 342.328,64.728 C342.183999,66.5040089 342.016001,68.2799911 341.824,70.056 C341.679999,71.3040062 341.392002,71.928 340.96,71.928 C340.383997,71.928 340.096,70.5600137 340.096,67.824 C340.096,67.2479971 340.12,66.4320053 340.168,65.376 C340.216,64.3199947 340.24,63.5280026 340.24,63 L340.24,62.424 C340.24,55.2719642 339.952003,49.3440235 339.376,44.64 C338.847997,40.5599796 338.296003,38.52 337.72,38.52 C337.191997,38.52 336.928,39.3119921 336.928,40.896 C336.928,40.7519993 336.999999,41.6639902 337.144,43.632 C337.288001,45.8880113 337.384,48.3839863 337.432,51.12 C337.48,52.8000084 337.671998,55.343983 338.008,58.752 C338.296001,61.9200158 338.44,64.3199918 338.44,65.952 C338.44,71.95203 338.224002,74.952 337.792,74.952 L337.648,74.952 C336.735995,74.952 336.160001,73.656013 335.92,71.064 C335.631999,67.2239808 335.368001,63.3600194 335.128,59.472 C334.743998,54.6239758 333.880007,50.0640214 332.536,45.792 C332.055998,44.3039926 329.968018,38.9760458 326.272,29.808 C323.727987,23.5199686 322.456,20.1120026 322.456,19.584 C322.456,18.9119966 322.755997,18.276003 323.356,17.676 C323.956003,17.075997 324.519997,16.776 325.048,16.776 C325.432002,16.776 326.151995,17.1239965 327.208,17.82 C328.264005,18.5160035 328.959998,18.864 329.296,18.864 C329.584001,18.864 329.991997,18.4800038 330.52,17.712 C331.240004,16.6559947 331.959996,15.6000053 332.68,14.544 C334.69601,11.7119858 336.231995,10.296 337.288,10.296 C338.104004,10.296 338.799997,10.5599974 339.376,11.088 C339.664001,11.3760014 340.263995,12.0959942 341.176,13.248 C341.320001,13.440001 342.279991,14.735988 344.056,17.136 C344.728003,18.0960048 345.183999,18.576 345.424,18.576 C345.712001,18.576 346.395995,18.2040037 347.476,17.46 C348.556005,16.7159963 349.263998,16.344 349.6,16.344 C350.512005,16.344 351.351996,16.7639958 352.12,17.604 C352.888004,18.4440042 353.272,19.367995 353.272,20.376 L353.272,20.376 Z M334.768,73.512 C334.768,74.3280041 334.360004,74.736 333.544,74.736 C332.919997,74.736 332.464001,74.4720026 332.176,73.944 C331.983999,73.6079983 331.720002,72.840006 331.384,71.64 C328.647986,61.9919518 325.24002,53.3760379 321.16,45.792 C315.783973,35.7119496 310.408027,27.8160286 305.032,22.104 C300.087975,16.8239736 295.936017,14.184 292.576,14.184 C290.51199,14.184 288.844006,14.8559933 287.572,16.2 C286.299994,17.5440067 285.664,19.319989 285.664,21.528 C285.664,22.1040029 285.843998,22.9199947 286.204,23.976 C286.564002,25.0320053 286.744,25.7999976 286.744,26.28 C286.744,26.8560029 286.528002,27.6839946 286.096,28.764 C285.663998,29.8440054 285.328001,30.384 285.088,30.384 C284.319996,30.384 283.576004,29.4960089 282.856,27.72 C281.991996,25.6559897 281.56,23.2080142 281.56,20.376 C281.56,18.5999911 282.015995,17.112006 282.928,15.912 C284.032006,14.4239926 285.61599,13.176005 287.68,12.168 C289.60001,11.159995 291.399992,10.656 293.08,10.656 C297.06402,10.656 301.167979,11.9759868 305.392,14.616 C309.712022,17.4000139 313.791981,21.3839741 317.632,26.568 C322.864026,33.6720355 326.583989,42.0719515 328.792,51.768 C329.992006,56.9520259 331.383992,62.0639748 332.968,67.104 C334.168006,70.9920194 334.768,73.1279981 334.768,73.512 L334.768,73.512 Z" id="a-b-c-d-e" fill="#3F3F3F" sketch:type="MSShapeGroup"></path>
    </g>
</svg>