<?xml version="1.0" encoding="UTF-8" standalone="no"?>
<svg width="85px" height="87px" viewBox="0 0 85 87" version="1.1" xmlns="http://www.w3.org/2000/svg" xmlns:xlink="http://www.w3.org/1999/xlink" xmlns:sketch="http://www.bohemiancoding.com/sketch/ns">
    <!-- Generator: Sketch Beta 3.1 (8603) - http://www.bohemiancoding.com/sketch -->
    <title>flor4</title>
    <desc>Created with Sketch Beta.</desc>
    <defs></defs>
    <g id="Page-1" stroke="none" stroke-width="1" fill="none" fill-rule="evenodd" sketch:type="MSPage">
        <path d="M-224.832,9.36 L-225.12,62.784 C-225.12,63.7440048 -225.479996,64.224 -226.2,64.224 C-227.208005,64.224 -227.736,63.7920043 -227.784,62.928 C-228.600004,51.0719407 -229.008,43.9920115 -229.008,41.688 C-229.008,37.7519803 -228.840002,32.4720331 -228.504,25.848 C-228.167998,19.2239669 -228,14.5680134 -228,11.88 C-228,10.487993 -227.928001,9.5520024 -227.784,9.072 C-227.591999,8.39999664 -227.160003,8.064 -226.488,8.064 C-225.863997,8.064 -225.312002,8.49599568 -224.832,9.36 L-224.832,9.36 Z M-196.968,12.312 C-196.968,13.1280041 -197.423995,13.7039983 -198.336,14.04 C-199.584006,14.4240019 -200.807994,14.7839983 -202.008,15.12 C-204.168011,15.7920034 -205.655996,17.1839894 -206.472,19.296 C-207.240004,21.2160096 -207.624,24.2159796 -207.624,28.296 C-207.624,29.6400067 -207.396002,31.7639855 -206.94,34.668 C-206.483998,37.5720145 -206.256,39.7679926 -206.256,41.256 C-206.256,43.4160108 -206.591997,46.1759832 -207.264,49.536 C-208.032004,53.3760192 -209.015994,56.6879861 -210.216,59.472 C-212.23201,64.080023 -214.391988,67.7039868 -216.696,70.344 C-218.76001,72.6480115 -220.583992,73.8 -222.168,73.8 C-223.224005,73.8 -224.159996,73.2600054 -224.976,72.18 C-225.792004,71.0999946 -226.391998,70.56 -226.776,70.56 C-227.304003,70.56 -227.879997,71.0039956 -228.504,71.892 C-229.128003,72.7800044 -229.943995,73.224 -230.952,73.224 C-234.744019,73.224 -238.127985,70.4160281 -241.104,64.8 C-242.928009,61.3439827 -244.511993,56.2560336 -245.856,49.536 C-246.384003,46.8959868 -246.648,44.7120086 -246.648,42.984 C-246.648,38.9999801 -246.552001,34.9440206 -246.36,30.816 C-246.167999,26.6879794 -246.072,24.528001 -246.072,24.336 C-246.072,20.4479806 -247.10399,17.7600074 -249.168,16.272 C-250.272006,15.5039962 -251.351995,14.7360038 -252.408,13.968 C-253.272004,13.3439969 -253.704,12.8400019 -253.704,12.456 C-253.704,12.0719981 -253.368003,11.88 -252.696,11.88 C-250.919991,11.88 -248.964011,12.6719921 -246.828,14.256 C-244.691989,15.8400079 -243.120005,17.6639897 -242.112,19.728 C-240.671993,22.7040149 -239.736002,27.4319676 -239.304,33.912 C-239.015999,41.0160355 -238.728001,48.1439642 -238.44,55.296 C-238.151999,60.0480238 -237.456006,63.6719875 -236.352,66.168 C-235.343995,68.3280108 -234.120007,69.408 -232.68,69.408 C-232.151997,69.408 -231.888,68.8560055 -231.888,67.752 C-231.888,67.9920012 -232.247996,66.1920192 -232.968,62.352 C-233.832004,58.0799786 -234.455998,53.3280262 -234.84,48.096 L-237.216,14.76 C-237.216,11.351983 -236.424008,9.648 -234.84,9.648 C-233.399993,9.648 -232.512002,11.3279832 -232.176,14.688 C-232.08,15.5520043 -232.032,17.687983 -232.032,21.096 L-232.032,27.504 C-232.032,40.6080655 -231.576005,50.15997 -230.664,56.16 C-229.703995,62.4480314 -228.144011,65.592 -225.984,65.592 L-225.768,65.592 C-225.672,65.5439998 -225.6,65.52 -225.552,65.52 C-224.879997,65.3759993 -224.208003,64.0560125 -223.536,61.56 C-222.815996,58.7759861 -222.456,55.6320175 -222.456,52.128 L-222.456,36.864 C-222.456,34.271987 -222.192003,29.880031 -221.664,23.688 C-221.231998,18.5999746 -220.848002,15.2640079 -220.512,13.68 C-220.127998,11.5199892 -219.528004,10.44 -218.712,10.44 C-217.991996,10.44 -217.272004,10.8959954 -216.552,11.808 C-215.783996,12.8640053 -215.4,14.1119928 -215.4,15.552 C-215.4,15.6480005 -215.759996,18.599971 -216.48,24.408 C-217.344004,31.5120355 -218.087997,38.8799618 -218.712,46.512 C-219.000001,50.112018 -219.479997,54.4559746 -220.152,59.544 C-220.728003,63.6240204 -221.016,66.2399942 -221.016,67.392 C-221.016,68.1120036 -220.656004,68.472 -219.936,68.472 C-218.879995,68.472 -217.848005,66.672018 -216.84,63.072 C-215.687994,59.0399798 -215.112,54.4080262 -215.112,49.176 L-215.112,37.728 C-215.112,33.6479796 -214.344008,29.5440206 -212.808,25.416 C-211.367993,21.4319801 -209.496012,18.1920125 -207.192,15.696 C-204.503987,12.7679854 -201.456017,11.304 -198.048,11.304 C-197.327996,11.304 -196.968,11.6399966 -196.968,12.312 L-196.968,12.312 Z M-142.248,8.568 C-142.248,8.71200072 -142.751995,9.23999544 -143.76,10.152 C-145.008006,11.2560055 -145.991996,12.3359947 -146.712,13.392 C-149.112012,16.992018 -150.312,22.0799671 -150.312,28.656 C-150.312,31.1040122 -149.616007,35.4479688 -148.224,41.688 C-146.831993,47.9280312 -146.136,52.847982 -146.136,56.448 C-146.136,61.8240269 -147.191989,66.0599845 -149.304,69.156 C-151.416011,72.2520155 -154.271982,73.8 -157.872,73.8 C-161.136016,73.8 -163.847989,71.5440226 -166.008,67.032 C-167.448007,64.0079849 -168.168,59.400031 -168.168,53.208 L-168.168,52.2 C-168.168,49.8959885 -167.640005,45.4800326 -166.584,38.952 C-165.527995,32.4239674 -165,27.0960206 -165,22.968 C-165,18.167976 -166.055989,14.4240134 -168.168,11.736 C-168.216,11.6399995 -168.839994,11.088005 -170.04,10.08 C-171.000005,9.21599568 -171.695998,8.35200432 -172.128,7.488 C-171.695998,7.0079976 -171.216003,6.768 -170.688,6.768 C-168.815991,6.768 -167.136007,8.0879868 -165.648,10.728 C-164.015992,13.7040149 -163.056001,17.6399755 -162.768,22.536 C-162.72,25.2720137 -162.528002,30.143965 -162.192,37.152 C-161.759998,43.5840322 -161.544,48.7199808 -161.544,52.56 C-161.544,53.760006 -161.627999,55.2959906 -161.796,57.168 C-161.964001,59.0400094 -162.048,60.3119966 -162.048,60.984 C-162.048,65.3520218 -161.160009,67.9679957 -159.384,68.832 C-158.663996,68.1119964 -158.304,66.4800127 -158.304,63.936 C-158.304,61.4399875 -158.627997,55.0320516 -159.276,44.712 C-159.924003,34.3919484 -160.248,25.3680386 -160.248,17.64 C-160.248,12.2639731 -159.360009,8.56801008 -157.584,6.552 L-156.432,6.552 C-155.135994,7.89600672 -154.488,10.6559791 -154.488,14.832 C-154.488,14.7359995 -154.559999,16.0079868 -154.704,18.648 C-154.848001,21.5760146 -154.968,24.6719837 -155.064,27.936 L-155.28,37.008 C-155.328,38.0640053 -155.423999,40.4159818 -155.568,44.064 C-155.664,46.9440144 -155.712,49.2239916 -155.712,50.904 L-155.712,62.136 C-155.712,66.6960228 -155.280004,68.976 -154.416,68.976 L-154.272,68.976 C-153.599997,68.976 -152.964003,68.2200076 -152.364,66.708 C-151.763997,65.1959924 -151.464,63.336011 -151.464,61.128 C-151.464,60.119995 -151.799997,57.120025 -152.472,52.128 C-153.144003,47.135975 -153.48,42.5280211 -153.48,38.304 C-153.48,29.3279551 -152.400011,21.936029 -150.24,16.128 C-148.27199,10.7519731 -145.872014,7.87200192 -143.04,7.488 C-142.511997,7.92000216 -142.248,8.27999856 -142.248,8.568 L-142.248,8.568 Z M-14.952,62.208 C-14.952,62.5440017 -15.2159974,62.8799983 -15.744,63.216 C-16.2720026,63.5520017 -16.7759976,63.72 -17.256,63.72 C-17.4000007,63.72 -17.9279954,63.6000012 -18.84,63.36 C-19.7520046,63.1199988 -20.5439966,63 -21.216,63 C-21.408001,63 -21.8759963,63.0479995 -22.62,63.144 C-23.3640037,63.2400005 -23.9999974,63.288 -24.528,63.288 C-28.5120199,63.288 -32.7119779,61.9680132 -37.128,59.328 C-41.7840233,56.5439861 -45.8879822,52.7040245 -49.44,47.808 C-50.3040043,46.6559942 -51.5039923,44.5920149 -53.04,41.616 C-54.432007,38.9279866 -55.631995,36.9600062 -56.64,35.712 C-56.7360005,36.2400026 -56.784,36.7439976 -56.784,37.224 C-56.784,37.9440036 -55.4160137,41.3519695 -52.68,47.448 C-50.5679894,52.2000238 -48.1200139,56.879977 -45.336,61.488 C-43.1759892,65.088018 -42.096,66.9599993 -42.096,67.104 C-42.096,67.4400017 -42.2399986,67.608 -42.528,67.608 C-43.2000034,67.608 -44.7119882,66.2880132 -47.064,63.648 C-49.9920146,60.2879832 -52.7039875,56.2320238 -55.2,51.48 C-58.0800144,45.9599724 -60.5759894,40.3200288 -62.688,34.56 C-64.2240077,30.2879786 -65.0399995,28.152 -65.136,28.152 C-65.5200019,28.152 -65.712,28.3919976 -65.712,28.872 C-65.712,31.6560139 -63.8880182,38.7359431 -60.24,50.112 C-58.6559921,55.0080245 -56.8320103,59.6159784 -54.768,63.936 C-53.1359918,67.2960168 -52.32,69.0959988 -52.32,69.336 C-52.32,71.4960108 -53.1839914,72.576 -54.912,72.576 C-56.0160055,72.576 -57.263993,71.7480083 -58.656,70.092 C-60.048007,68.4359917 -60.8159993,67.608 -60.96,67.608 C-61.7280038,67.608 -62.112,68.4719914 -62.112,70.2 L-62.112,72.216 C-62.112,73.8000079 -63.815983,74.592 -67.224,74.592 C-71.1120194,74.592 -73.056,73.9680062 -73.056,72.72 C-73.056,72.1439971 -72.9720008,71.3880047 -72.804,70.452 C-72.6359992,69.5159953 -72.552,68.8800017 -72.552,68.544 C-72.552,68.2079983 -72.7919976,68.04 -73.272,68.04 C-73.464001,68.04 -74.1959936,68.7599928 -75.468,70.2 C-76.7400064,71.6400072 -77.8319954,72.36 -78.744,72.36 C-79.2720026,72.36 -79.8239971,71.9880037 -80.4,71.244 C-80.9760029,70.4999963 -81.264,69.7440038 -81.264,68.976 C-81.264,68.783999 -80.7360053,67.5120118 -79.68,65.16 C-78.1439923,61.7039827 -76.7520062,58.4160156 -75.504,55.296 C-71.0399777,44.0639438 -68.808,36.3600209 -68.808,32.184 C-68.808,31.9439988 -68.7720004,31.5840024 -68.7,31.104 C-68.6279996,30.6239976 -68.592,30.2640012 -68.592,30.024 C-68.592,29.5919978 -68.7359986,29.376 -69.024,29.376 C-69.216001,29.376 -69.6719964,30.0479933 -70.392,31.392 C-71.5440058,33.5040106 -73.0079911,37.0079755 -74.784,41.904 C-76.7520098,47.2800269 -78.3599938,51.2879868 -79.608,53.928 C-81.3840089,57.6240185 -83.1599911,60.7199875 -84.936,63.216 C-86.4240074,65.2800103 -87.4079976,66.312 -87.888,66.312 C-88.4160026,66.312 -88.68,66.0000031 -88.68,65.376 C-88.68,64.8959976 -88.2000048,63.6720098 -87.24,61.704 C-84.7919878,57.2399777 -81.9600161,51.8640314 -78.744,45.576 C-77.735995,43.175988 -76.728005,40.776012 -75.72,38.376 C-74.8559957,36.2639894 -74.3520007,34.6560055 -74.208,33.552 L-74.496,32.112 C-74.8800019,32.1600002 -76.271988,34.5359765 -78.672,39.24 C-80.5440094,42.8880182 -83.6399784,47.1599755 -87.96,52.056 C-90.2160113,54.648013 -94.0079734,57.3119863 -99.336,60.048 C-100.920008,60.8640041 -102.143996,61.272 -103.008,61.272 C-103.104,61.272 -103.211999,61.2240005 -103.332,61.128 C-103.452001,61.0319995 -103.583999,60.984 -103.728,60.984 C-103.776,60.984 -104.639992,61.4279956 -106.32,62.316 C-108.000008,63.2040044 -109.775991,63.648 -111.648,63.648 C-112.848006,63.648 -113.855996,63.3600029 -114.672,62.784 L-114.744,61.128 C-103.943946,56.135975 -94.0560449,48.4080523 -85.08,37.944 C-76.1999556,27.6239484 -71.76,21.3120115 -71.76,19.008 C-71.76,18.7199986 -72.1079965,18.0360054 -72.804,16.956 C-73.5000035,15.8759946 -73.848,14.8560048 -73.848,13.896 C-73.848,10.3439822 -71.4720238,8.568 -66.72,8.568 C-62.111977,8.568 -59.808,10.4159815 -59.808,14.112 C-59.808,14.5440022 -60.1439966,15.2399952 -60.816,16.2 C-61.4880034,17.1600048 -61.824,17.8079983 -61.824,18.144 C-61.824,19.0560046 -60.3120151,21.7439777 -57.288,26.208 C-53.4479808,31.8720283 -48.7200281,37.6799702 -43.104,43.632 C-39.0239796,48.0000218 -35.6640132,51.1919899 -33.024,53.208 C-29.0879803,56.1840149 -24.7680235,58.3199935 -20.064,59.616 C-18.9599945,59.8560012 -17.8320058,60.1199986 -16.68,60.408 C-15.5279942,60.6960014 -14.952,61.2959954 -14.952,62.208 L-14.952,62.208 Z M79.872,71.424 C79.872,73.7280115 78.1920168,74.88 74.832,74.88 C70.5599786,74.88 65.9760245,73.5600132 61.08,70.92 C55.7519734,68.0399856 51.0960199,64.0560254 47.112,58.968 L45.816,57.96 C45.7199995,62.568023 45.6000007,67.1999767 45.456,71.856 C45.3599995,74.9280154 44.9760034,76.464 44.304,76.464 C43.3919954,76.464 42.7440019,74.9280154 42.36,71.856 C42.2159993,70.7519945 41.9040024,66.1920401 41.424,58.176 C41.3759998,57.3119957 41.1840017,56.88 40.848,56.88 C40.7039993,56.88 40.3680026,57.3599952 39.84,58.32 C39.0239959,59.8080074 37.920007,61.3439921 36.528,62.928 C33.3119839,66.5760182 29.6760203,69.39599 25.62,71.388 C21.5639797,73.38001 17.6160192,74.376 13.776,74.376 C12.3359928,74.376 11.1000052,73.8960048 10.068,72.936 C9.03599484,71.9759952 8.52,70.9440055 8.52,69.84 C8.52,68.5439935 9.26399256,67.5360036 10.752,66.816 C13.5840142,65.3759928 15.2159978,64.4880017 15.648,64.152 C15.5039993,64.0559995 13.8240161,63.0000101 10.608,60.984 C8.97599184,59.975995 8.16,58.8000067 8.16,57.456 C8.16,56.5439954 8.55599604,55.692004 9.348,54.9 C10.140004,54.107996 10.9919954,53.712 11.904,53.712 C11.2799969,53.712 12.9839798,54.1319958 17.016,54.972 C21.0480202,55.8120042 25.5359753,56.232 30.48,56.232 C32.3040091,56.232 33.815994,55.9680026 35.016,55.44 C36.216006,54.9119974 36.816,54.3120034 36.816,53.64 C36.816,52.9679966 36.4560036,52.4160022 35.736,51.984 C34.8719957,51.791999 34.0320041,51.600001 33.216,51.408 C31.1999899,50.8319971 29.1360106,49.8720067 27.024,48.528 C23.0399801,45.9839873 19.8000125,42.6720204 17.304,38.592 C14.9519882,34.6559803 13.776,30.8640182 13.776,27.216 C13.776,24.9599887 14.7119906,23.832 16.584,23.832 C17.6400053,23.832 18.4199975,24.3959944 18.924,25.524 C19.4280025,26.6520056 20.0399964,27.216 20.76,27.216 C21.6240043,27.216 22.056,26.2560096 22.056,24.336 L22.056,22.248 C22.056,18.9359834 23.1359892,17.28 25.296,17.28 C26.3520053,17.28 27.2279965,17.6519963 27.924,18.396 C28.6200035,19.1400037 28.968,20.0639945 28.968,21.168 C28.968,21.360001 28.8960007,21.8999956 28.752,22.788 C28.6079993,23.6760044 28.536,24.4799964 28.536,25.2 C28.536,32.6400372 29.6879885,38.6159774 31.992,43.128 C34.1520108,47.4960218 36.9119832,49.68 40.272,49.68 C41.1840046,49.68 41.64,49.3920029 41.64,48.816 C41.64,48.5759988 41.2800036,48.0720038 40.56,47.304 C39.6479954,46.295995 38.9280026,45.3600043 38.4,44.496 C37.0559933,42.287989 35.880005,38.9760221 34.872,34.56 C33.7199942,29.6639755 33.144,24.8400238 33.144,20.088 C33.144,18.2639909 33.4799966,16.7160064 34.152,15.444 C34.8240034,14.1719936 35.5199964,13.536 36.24,13.536 C37.1520046,13.536 38.1479946,14.2559928 39.228,15.696 C40.3080054,17.1360072 41.0399981,17.9279993 41.424,18.072 C41.5680007,17.4959971 41.64,16.8720034 41.64,16.2 C41.64,15.2879954 41.5680007,14.2560058 41.424,13.104 C41.2799993,11.9519942 41.208,11.2560012 41.208,11.016 C41.208,10.007995 41.4839972,9.13200372 42.036,8.388 C42.5880028,7.64399628 43.1999966,7.272 43.872,7.272 C45.7440094,7.272 46.68,8.66398608 46.68,11.448 C46.68,12.0240029 46.6200006,12.8879942 46.5,14.04 C46.3799994,15.1920058 46.32,16.0559971 46.32,16.632 C46.32,16.7760007 46.3679995,17.1839966 46.464,17.856 C46.9920026,17.5679986 47.759995,16.7760065 48.768,15.48 C49.6320043,14.3759945 50.3759969,13.824 51,13.824 C52.5360077,13.824 53.4959981,15.8159801 53.88,19.8 C54.0240007,21.1440067 54.096,23.8799794 54.096,28.008 C54.096,34.2960314 51.7200238,41.4239602 46.968,49.392 C47.1120007,49.7760019 47.4959969,49.968 48.12,49.968 C51.2400156,49.968 53.6159918,48.2880168 55.248,44.928 C56.8800082,41.5679832 57.9599974,36.384035 58.488,29.376 C58.5840005,28.0319933 58.632,26.9520041 58.632,26.136 L58.632,24.696 C58.5839998,24.0719969 58.56,23.6160014 58.56,23.328 C58.56,18.8639777 59.9039866,16.632 62.592,16.632 C63.6480053,16.632 64.4159976,17.231994 64.896,18.432 C65.1840014,19.2960043 65.4719986,21.0479868 65.76,23.688 C66.0960017,26.9040161 66.3839988,28.512 66.624,28.512 C66.9600017,28.512 67.2719986,28.0800043 67.56,27.216 C67.9440019,26.1119945 68.3279981,24.9840058 68.712,23.832 C69.1440022,22.9679957 69.8399952,22.536 70.8,22.536 C71.7120046,22.536 72.5159965,23.0039953 73.212,23.94 C73.9080035,24.8760047 74.256,25.9679938 74.256,27.216 C74.256,30.4320161 73.0320122,34.0799796 70.584,38.16 C66.5999801,44.8320334 62.0640254,49.0079916 56.976,50.688 C55.7279938,50.9760014 54.4800062,51.2879983 53.232,51.624 C51.6959923,52.0080019 50.5920034,52.6079959 49.92,53.424 L49.92,53.496 C49.92,54.0720029 50.6639926,54.6719969 52.152,55.296 C53.6400074,55.9200031 55.3919899,56.232 57.408,56.232 C60.000013,56.232 63.1559814,55.9680026 66.876,55.44 C70.5960186,54.9119974 73.0079945,54.648 74.112,54.648 C76.8960139,54.648 78.288,55.9919866 78.288,58.68 C78.288,60.2160077 76.9680132,61.583994 74.328,62.784 C74.2799998,62.784 73.5360072,63.0719971 72.096,63.648 C71.6639978,63.840001 71.448,64.031999 71.448,64.224 C71.448,64.8480031 72.047994,65.4959966 73.248,66.168 C74.6880072,66.7920031 76.1519926,67.3919971 77.64,67.968 C79.1280074,68.7360038 79.872,69.8879923 79.872,71.424 L79.872,71.424 Z M218.4,21.024 C218.4,22.5600077 218.256001,24.0719926 217.968,25.56 C217.679999,27.0480074 217.536,27.8159998 217.536,27.864 C217.536,27.9600005 217.56,28.1759983 217.608,28.512 L217.608,29.376 C217.608,31.776012 217.032006,32.976 215.88,32.976 C214.343992,32.976 213.576,31.5600142 213.576,28.728 C213.576,27.1919923 213.899997,25.3320109 214.548,23.148 C215.196003,20.9639891 215.52,19.5600031 215.52,18.936 C215.52,17.8799947 214.788007,16.8240053 213.324,15.768 C211.859993,14.7119947 210.528006,14.184 209.328,14.184 C204.623976,14.184 199.440028,17.0399714 193.776,22.752 C187.919971,28.7040298 182.064029,37.2239446 176.208,48.312 C174.095989,52.3440202 172.296007,56.7119765 170.808,61.416 C169.559994,65.4480202 168.672003,68.9519851 168.144,71.928 C167.951999,72.936005 167.808,73.5599988 167.712,73.8 C167.423999,74.2800024 166.872004,74.6399988 166.056,74.88 C165.815999,74.4959981 165.696,74.1120019 165.696,73.728 C165.696,73.4399986 165.887998,72.5040079 166.272,70.92 C166.752002,68.6639887 167.159998,66.6720086 167.496,64.944 C167.736001,62.351987 168.575993,57.5040355 170.016,50.4 C173.280016,37.6799364 178.127968,27.816035 184.56,20.808 C190.848031,14.0399662 197.927961,10.656 205.8,10.656 C209.544019,10.656 212.579988,11.6399902 214.908,13.608 C217.236012,15.5760098 218.4,18.0479851 218.4,21.024 L218.4,21.024 Z M175.272,20.376 C175.272,21.0000031 174.600007,22.7279858 173.256,25.56 C171.33599,29.4960197 169.776006,33.1199834 168.576,36.432 C167.567995,39.2640142 166.728003,43.175975 166.056,48.168 C165.719998,50.6160122 165.144004,56.135957 164.328,64.728 C164.183999,66.5040089 164.016001,68.2799911 163.824,70.056 C163.679999,71.3040062 163.392002,71.928 162.96,71.928 C162.383997,71.928 162.096,70.5600137 162.096,67.824 C162.096,67.2479971 162.12,66.4320053 162.168,65.376 C162.216,64.3199947 162.24,63.5280026 162.24,63 L162.24,62.424 C162.24,55.2719642 161.952003,49.3440235 161.376,44.64 C160.847997,40.5599796 160.296003,38.52 159.72,38.52 C159.191997,38.52 158.928,39.3119921 158.928,40.896 C158.928,40.7519993 158.999999,41.6639902 159.144,43.632 C159.288001,45.8880113 159.384,48.3839863 159.432,51.12 C159.48,52.8000084 159.671998,55.343983 160.008,58.752 C160.296001,61.9200158 160.44,64.3199918 160.44,65.952 C160.44,71.95203 160.224002,74.952 159.792,74.952 L159.648,74.952 C158.735995,74.952 158.160001,73.656013 157.92,71.064 C157.631999,67.2239808 157.368001,63.3600194 157.128,59.472 C156.743998,54.6239758 155.880007,50.0640214 154.536,45.792 C154.055998,44.3039926 151.968018,38.9760458 148.272,29.808 C145.727987,23.5199686 144.456,20.1120026 144.456,19.584 C144.456,18.9119966 144.755997,18.276003 145.356,17.676 C145.956003,17.075997 146.519997,16.776 147.048,16.776 C147.432002,16.776 148.151995,17.1239965 149.208,17.82 C150.264005,18.5160035 150.959998,18.864 151.296,18.864 C151.584001,18.864 151.991997,18.4800038 152.52,17.712 C153.240004,16.6559947 153.959996,15.6000053 154.68,14.544 C156.69601,11.7119858 158.231995,10.296 159.288,10.296 C160.104004,10.296 160.799997,10.5599974 161.376,11.088 C161.664001,11.3760014 162.263995,12.0959942 163.176,13.248 C163.320001,13.440001 164.279991,14.735988 166.056,17.136 C166.728003,18.0960048 167.183999,18.576 167.424,18.576 C167.712001,18.576 168.395995,18.2040037 169.476,17.46 C170.556005,16.7159963 171.263998,16.344 171.6,16.344 C172.512005,16.344 173.351996,16.7639958 174.12,17.604 C174.888004,18.4440042 175.272,19.367995 175.272,20.376 L175.272,20.376 Z M156.768,73.512 C156.768,74.3280041 156.360004,74.736 155.544,74.736 C154.919997,74.736 154.464001,74.4720026 154.176,73.944 C153.983999,73.6079983 153.720002,72.840006 153.384,71.64 C150.647986,61.9919518 147.24002,53.3760379 143.16,45.792 C137.783973,35.7119496 132.408027,27.8160286 127.032,22.104 C122.087975,16.8239736 117.936017,14.184 114.576,14.184 C112.51199,14.184 110.844006,14.8559933 109.572,16.2 C108.299994,17.5440067 107.664,19.319989 107.664,21.528 C107.664,22.1040029 107.843998,22.9199947 108.204,23.976 C108.564002,25.0320053 108.744,25.7999976 108.744,26.28 C108.744,26.8560029 108.528002,27.6839946 108.096,28.764 C107.663998,29.8440054 107.328001,30.384 107.088,30.384 C106.319996,30.384 105.576004,29.4960089 104.856,27.72 C103.991996,25.6559897 103.56,23.2080142 103.56,20.376 C103.56,18.5999911 104.015995,17.112006 104.928,15.912 C106.032006,14.4239926 107.61599,13.176005 109.68,12.168 C111.60001,11.159995 113.399992,10.656 115.08,10.656 C119.06402,10.656 123.167979,11.9759868 127.392,14.616 C131.712022,17.4000139 135.791981,21.3839741 139.632,26.568 C144.864026,33.6720355 148.583989,42.0719515 150.792,51.768 C151.992006,56.9520259 153.383992,62.0639748 154.968,67.104 C156.168006,70.9920194 156.768,73.1279981 156.768,73.512 L156.768,73.512 Z" id="a-b-c-d-e" fill="#3F3F3F" sketch:type="MSShapeGroup"></path>
    </g>
</svg>