<?xml version="1.0" encoding="UTF-8" standalone="no"?>
<svg width="113px" height="83px" viewBox="0 0 113 83" version="1.1" xmlns="http://www.w3.org/2000/svg" xmlns:xlink="http://www.w3.org/1999/xlink" xmlns:sketch="http://www.bohemiancoding.com/sketch/ns">
    <!-- Generator: Sketch Beta 3.1 (8603) - http://www.bohemiancoding.com/sketch -->
    <title>flor3</title>
    <desc>Created with Sketch Beta.</desc>
    <defs></defs>
    <g id="Page-1" stroke="none" stroke-width="1" fill="none" fill-rule="evenodd" sketch:type="MSPage">
        <path d="M-101.832,9.36 L-102.12,62.784 C-102.12,63.7440048 -102.479996,64.224 -103.2,64.224 C-104.208005,64.224 -104.736,63.7920043 -104.784,62.928 C-105.600004,51.0719407 -106.008,43.9920115 -106.008,41.688 C-106.008,37.7519803 -105.840002,32.4720331 -105.504,25.848 C-105.167998,19.2239669 -105,14.5680134 -105,11.88 C-105,10.487993 -104.928001,9.5520024 -104.784,9.072 C-104.591999,8.39999664 -104.160003,8.064 -103.488,8.064 C-102.863997,8.064 -102.312002,8.49599568 -101.832,9.36 L-101.832,9.36 Z M-73.968,12.312 C-73.968,13.1280041 -74.4239954,13.7039983 -75.336,14.04 C-76.5840062,14.4240019 -77.807994,14.7839983 -79.008,15.12 C-81.1680108,15.7920034 -82.6559959,17.1839894 -83.472,19.296 C-84.2400038,21.2160096 -84.624,24.2159796 -84.624,28.296 C-84.624,29.6400067 -84.3960023,31.7639855 -83.94,34.668 C-83.4839977,37.5720145 -83.256,39.7679926 -83.256,41.256 C-83.256,43.4160108 -83.5919966,46.1759832 -84.264,49.536 C-85.0320038,53.3760192 -86.015994,56.6879861 -87.216,59.472 C-89.2320101,64.080023 -91.3919885,67.7039868 -93.696,70.344 C-95.7600103,72.6480115 -97.5839921,73.8 -99.168,73.8 C-100.224005,73.8 -101.159996,73.2600054 -101.976,72.18 C-102.792004,71.0999946 -103.391998,70.56 -103.776,70.56 C-104.304003,70.56 -104.879997,71.0039956 -105.504,71.892 C-106.128003,72.7800044 -106.943995,73.224 -107.952,73.224 C-111.744019,73.224 -115.127985,70.4160281 -118.104,64.8 C-119.928009,61.3439827 -121.511993,56.2560336 -122.856,49.536 C-123.384003,46.8959868 -123.648,44.7120086 -123.648,42.984 C-123.648,38.9999801 -123.552001,34.9440206 -123.36,30.816 C-123.167999,26.6879794 -123.072,24.528001 -123.072,24.336 C-123.072,20.4479806 -124.10399,17.7600074 -126.168,16.272 C-127.272006,15.5039962 -128.351995,14.7360038 -129.408,13.968 C-130.272004,13.3439969 -130.704,12.8400019 -130.704,12.456 C-130.704,12.0719981 -130.368003,11.88 -129.696,11.88 C-127.919991,11.88 -125.964011,12.6719921 -123.828,14.256 C-121.691989,15.8400079 -120.120005,17.6639897 -119.112,19.728 C-117.671993,22.7040149 -116.736002,27.4319676 -116.304,33.912 C-116.015999,41.0160355 -115.728001,48.1439642 -115.44,55.296 C-115.151999,60.0480238 -114.456006,63.6719875 -113.352,66.168 C-112.343995,68.3280108 -111.120007,69.408 -109.68,69.408 C-109.151997,69.408 -108.888,68.8560055 -108.888,67.752 C-108.888,67.9920012 -109.247996,66.1920192 -109.968,62.352 C-110.832004,58.0799786 -111.455998,53.3280262 -111.84,48.096 L-114.216,14.76 C-114.216,11.351983 -113.424008,9.648 -111.84,9.648 C-110.399993,9.648 -109.512002,11.3279832 -109.176,14.688 C-109.08,15.5520043 -109.032,17.687983 -109.032,21.096 L-109.032,27.504 C-109.032,40.6080655 -108.576005,50.15997 -107.664,56.16 C-106.703995,62.4480314 -105.144011,65.592 -102.984,65.592 L-102.768,65.592 C-102.672,65.5439998 -102.6,65.52 -102.552,65.52 C-101.879997,65.3759993 -101.208003,64.0560125 -100.536,61.56 C-99.8159964,58.7759861 -99.456,55.6320175 -99.456,52.128 L-99.456,36.864 C-99.456,34.271987 -99.1920026,29.880031 -98.664,23.688 C-98.2319978,18.5999746 -97.8480017,15.2640079 -97.512,13.68 C-97.1279981,11.5199892 -96.5280041,10.44 -95.712,10.44 C-94.9919964,10.44 -94.2720036,10.8959954 -93.552,11.808 C-92.7839962,12.8640053 -92.4,14.1119928 -92.4,15.552 C-92.4,15.6480005 -92.7599964,18.599971 -93.48,24.408 C-94.3440043,31.5120355 -95.0879969,38.8799618 -95.712,46.512 C-96.0000014,50.112018 -96.4799966,54.4559746 -97.152,59.544 C-97.7280029,63.6240204 -98.016,66.2399942 -98.016,67.392 C-98.016,68.1120036 -97.6560036,68.472 -96.936,68.472 C-95.8799947,68.472 -94.848005,66.672018 -93.84,63.072 C-92.6879942,59.0399798 -92.112,54.4080262 -92.112,49.176 L-92.112,37.728 C-92.112,33.6479796 -91.3440077,29.5440206 -89.808,25.416 C-88.3679928,21.4319801 -86.4960115,18.1920125 -84.192,15.696 C-81.5039866,12.7679854 -78.456017,11.304 -75.048,11.304 C-74.3279964,11.304 -73.968,11.6399966 -73.968,12.312 L-73.968,12.312 Z M-19.248,8.568 C-19.248,8.71200072 -19.751995,9.23999544 -20.76,10.152 C-22.0080062,11.2560055 -22.9919964,12.3359947 -23.712,13.392 C-26.112012,16.992018 -27.312,22.0799671 -27.312,28.656 C-27.312,31.1040122 -26.616007,35.4479688 -25.224,41.688 C-23.831993,47.9280312 -23.136,52.847982 -23.136,56.448 C-23.136,61.8240269 -24.1919894,66.0599845 -26.304,69.156 C-28.4160106,72.2520155 -31.271982,73.8 -34.872,73.8 C-38.1360163,73.8 -40.8479892,71.5440226 -43.008,67.032 C-44.4480072,64.0079849 -45.168,59.400031 -45.168,53.208 L-45.168,52.2 C-45.168,49.8959885 -44.6400053,45.4800326 -43.584,38.952 C-42.5279947,32.4239674 -42,27.0960206 -42,22.968 C-42,18.167976 -43.0559894,14.4240134 -45.168,11.736 C-45.2160002,11.6399995 -45.839994,11.088005 -47.04,10.08 C-48.0000048,9.21599568 -48.6959978,8.35200432 -49.128,7.488 C-48.6959978,7.0079976 -48.2160026,6.768 -47.688,6.768 C-45.8159906,6.768 -44.1360074,8.0879868 -42.648,10.728 C-41.0159918,13.7040149 -40.0560014,17.6399755 -39.768,22.536 C-39.7199998,25.2720137 -39.5280017,30.143965 -39.192,37.152 C-38.7599978,43.5840322 -38.544,48.7199808 -38.544,52.56 C-38.544,53.760006 -38.6279992,55.2959906 -38.796,57.168 C-38.9640008,59.0400094 -39.048,60.3119966 -39.048,60.984 C-39.048,65.3520218 -38.1600089,67.9679957 -36.384,68.832 C-35.6639964,68.1119964 -35.304,66.4800127 -35.304,63.936 C-35.304,61.4399875 -35.6279968,55.0320516 -36.276,44.712 C-36.9240032,34.3919484 -37.248,25.3680386 -37.248,17.64 C-37.248,12.2639731 -36.3600089,8.56801008 -34.584,6.552 L-33.432,6.552 C-32.1359935,7.89600672 -31.488,10.6559791 -31.488,14.832 C-31.488,14.7359995 -31.5599993,16.0079868 -31.704,18.648 C-31.8480007,21.5760146 -31.9679995,24.6719837 -32.064,27.936 L-32.28,37.008 C-32.3280002,38.0640053 -32.4239993,40.4159818 -32.568,44.064 C-32.6640005,46.9440144 -32.712,49.2239916 -32.712,50.904 L-32.712,62.136 C-32.712,66.6960228 -32.2800043,68.976 -31.416,68.976 L-31.272,68.976 C-30.5999966,68.976 -29.964003,68.2200076 -29.364,66.708 C-28.763997,65.1959924 -28.464,63.336011 -28.464,61.128 C-28.464,60.119995 -28.7999966,57.120025 -29.472,52.128 C-30.1440034,47.135975 -30.48,42.5280211 -30.48,38.304 C-30.48,29.3279551 -29.4000108,21.936029 -27.24,16.128 C-25.2719902,10.7519731 -22.8720142,7.87200192 -20.04,7.488 C-19.5119974,7.92000216 -19.248,8.27999856 -19.248,8.568 L-19.248,8.568 Z M108.048,62.208 C108.048,62.5440017 107.784003,62.8799983 107.256,63.216 C106.727997,63.5520017 106.224002,63.72 105.744,63.72 C105.599999,63.72 105.072005,63.6000012 104.16,63.36 C103.247995,63.1199988 102.456003,63 101.784,63 C101.591999,63 101.124004,63.0479995 100.38,63.144 C99.6359963,63.2400005 99.0000026,63.288 98.472,63.288 C94.4879801,63.288 90.2880221,61.9680132 85.872,59.328 C81.2159767,56.5439861 77.1120178,52.7040245 73.56,47.808 C72.6959957,46.6559942 71.4960077,44.5920149 69.96,41.616 C68.567993,38.9279866 67.368005,36.9600062 66.36,35.712 C66.2639995,36.2400026 66.216,36.7439976 66.216,37.224 C66.216,37.9440036 67.5839863,41.3519695 70.32,47.448 C72.4320106,52.2000238 74.8799861,56.879977 77.664,61.488 C79.8240108,65.088018 80.904,66.9599993 80.904,67.104 C80.904,67.4400017 80.7600014,67.608 80.472,67.608 C79.7999966,67.608 78.2880118,66.2880132 75.936,63.648 C73.0079854,60.2879832 70.2960125,56.2320238 67.8,51.48 C64.9199856,45.9599724 62.4240106,40.3200288 60.312,34.56 C58.7759923,30.2879786 57.9600005,28.152 57.864,28.152 C57.4799981,28.152 57.288,28.3919976 57.288,28.872 C57.288,31.6560139 59.1119818,38.7359431 62.76,50.112 C64.3440079,55.0080245 66.1679897,59.6159784 68.232,63.936 C69.8640082,67.2960168 70.68,69.0959988 70.68,69.336 C70.68,71.4960108 69.8160086,72.576 68.088,72.576 C66.9839945,72.576 65.736007,71.7480083 64.344,70.092 C62.951993,68.4359917 62.1840007,67.608 62.04,67.608 C61.2719962,67.608 60.888,68.4719914 60.888,70.2 L60.888,72.216 C60.888,73.8000079 59.184017,74.592 55.776,74.592 C51.8879806,74.592 49.944,73.9680062 49.944,72.72 C49.944,72.1439971 50.0279992,71.3880047 50.196,70.452 C50.3640008,69.5159953 50.448,68.8800017 50.448,68.544 C50.448,68.2079983 50.2080024,68.04 49.728,68.04 C49.535999,68.04 48.8040064,68.7599928 47.532,70.2 C46.2599936,71.6400072 45.1680046,72.36 44.256,72.36 C43.7279974,72.36 43.1760029,71.9880037 42.6,71.244 C42.0239971,70.4999963 41.736,69.7440038 41.736,68.976 C41.736,68.783999 42.2639947,67.5120118 43.32,65.16 C44.8560077,61.7039827 46.2479938,58.4160156 47.496,55.296 C51.9600223,44.0639438 54.192,36.3600209 54.192,32.184 C54.192,31.9439988 54.2279996,31.5840024 54.3,31.104 C54.3720004,30.6239976 54.408,30.2640012 54.408,30.024 C54.408,29.5919978 54.2640014,29.376 53.976,29.376 C53.783999,29.376 53.3280036,30.0479933 52.608,31.392 C51.4559942,33.5040106 49.9920089,37.0079755 48.216,41.904 C46.2479902,47.2800269 44.6400062,51.2879868 43.392,53.928 C41.6159911,57.6240185 39.8400089,60.7199875 38.064,63.216 C36.5759926,65.2800103 35.5920024,66.312 35.112,66.312 C34.5839974,66.312 34.32,66.0000031 34.32,65.376 C34.32,64.8959976 34.7999952,63.6720098 35.76,61.704 C38.2080122,57.2399777 41.0399839,51.8640314 44.256,45.576 C45.264005,43.175988 46.271995,40.776012 47.28,38.376 C48.1440043,36.2639894 48.6479993,34.6560055 48.792,33.552 L48.504,32.112 C48.1199981,32.1600002 46.728012,34.5359765 44.328,39.24 C42.4559906,42.8880182 39.3600216,47.1599755 35.04,52.056 C32.7839887,54.648013 28.9920266,57.3119863 23.664,60.048 C22.0799921,60.8640041 20.8560043,61.272 19.992,61.272 C19.8959995,61.272 19.7880006,61.2240005 19.668,61.128 C19.5479994,61.0319995 19.4160007,60.984 19.272,60.984 C19.2239998,60.984 18.3600084,61.4279956 16.68,62.316 C14.9999916,63.2040044 13.2240094,63.648 11.352,63.648 C10.151994,63.648 9.14400408,63.3600029 8.328,62.784 L8.256,61.128 C19.056054,56.135975 28.9439551,48.4080523 37.92,37.944 C46.8000444,27.6239484 51.24,21.3120115 51.24,19.008 C51.24,18.7199986 50.8920035,18.0360054 50.196,16.956 C49.4999965,15.8759946 49.152,14.8560048 49.152,13.896 C49.152,10.3439822 51.5279762,8.568 56.28,8.568 C60.888023,8.568 63.192,10.4159815 63.192,14.112 C63.192,14.5440022 62.8560034,15.2399952 62.184,16.2 C61.5119966,17.1600048 61.176,17.8079983 61.176,18.144 C61.176,19.0560046 62.6879849,21.7439777 65.712,26.208 C69.5520192,31.8720283 74.2799719,37.6799702 79.896,43.632 C83.9760204,48.0000218 87.3359868,51.1919899 89.976,53.208 C93.9120197,56.1840149 98.2319765,58.3199935 102.936,59.616 C104.040006,59.8560012 105.167994,60.1199986 106.32,60.408 C107.472006,60.6960014 108.048,61.2959954 108.048,62.208 L108.048,62.208 Z M202.872,71.424 C202.872,73.7280115 201.192017,74.88 197.832,74.88 C193.559979,74.88 188.976024,73.5600132 184.08,70.92 C178.751973,68.0399856 174.09602,64.0560254 170.112,58.968 L168.816,57.96 C168.72,62.568023 168.600001,67.1999767 168.456,71.856 C168.36,74.9280154 167.976003,76.464 167.304,76.464 C166.391995,76.464 165.744002,74.9280154 165.36,71.856 C165.215999,70.7519945 164.904002,66.1920401 164.424,58.176 C164.376,57.3119957 164.184002,56.88 163.848,56.88 C163.703999,56.88 163.368003,57.3599952 162.84,58.32 C162.023996,59.8080074 160.920007,61.3439921 159.528,62.928 C156.311984,66.5760182 152.67602,69.39599 148.62,71.388 C144.56398,73.38001 140.616019,74.376 136.776,74.376 C135.335993,74.376 134.100005,73.8960048 133.068,72.936 C132.035995,71.9759952 131.52,70.9440055 131.52,69.84 C131.52,68.5439935 132.263993,67.5360036 133.752,66.816 C136.584014,65.3759928 138.215998,64.4880017 138.648,64.152 C138.503999,64.0559995 136.824016,63.0000101 133.608,60.984 C131.975992,59.975995 131.16,58.8000067 131.16,57.456 C131.16,56.5439954 131.555996,55.692004 132.348,54.9 C133.140004,54.107996 133.991995,53.712 134.904,53.712 C134.279997,53.712 135.98398,54.1319958 140.016,54.972 C144.04802,55.8120042 148.535975,56.232 153.48,56.232 C155.304009,56.232 156.815994,55.9680026 158.016,55.44 C159.216006,54.9119974 159.816,54.3120034 159.816,53.64 C159.816,52.9679966 159.456004,52.4160022 158.736,51.984 C157.871996,51.791999 157.032004,51.600001 156.216,51.408 C154.19999,50.8319971 152.136011,49.8720067 150.024,48.528 C146.03998,45.9839873 142.800012,42.6720204 140.304,38.592 C137.951988,34.6559803 136.776,30.8640182 136.776,27.216 C136.776,24.9599887 137.711991,23.832 139.584,23.832 C140.640005,23.832 141.419997,24.3959944 141.924,25.524 C142.428003,26.6520056 143.039996,27.216 143.76,27.216 C144.624004,27.216 145.056,26.2560096 145.056,24.336 L145.056,22.248 C145.056,18.9359834 146.135989,17.28 148.296,17.28 C149.352005,17.28 150.227997,17.6519963 150.924,18.396 C151.620003,19.1400037 151.968,20.0639945 151.968,21.168 C151.968,21.360001 151.896001,21.8999956 151.752,22.788 C151.607999,23.6760044 151.536,24.4799964 151.536,25.2 C151.536,32.6400372 152.687988,38.6159774 154.992,43.128 C157.152011,47.4960218 159.911983,49.68 163.272,49.68 C164.184005,49.68 164.64,49.3920029 164.64,48.816 C164.64,48.5759988 164.280004,48.0720038 163.56,47.304 C162.647995,46.295995 161.928003,45.3600043 161.4,44.496 C160.055993,42.287989 158.880005,38.9760221 157.872,34.56 C156.719994,29.6639755 156.144,24.8400238 156.144,20.088 C156.144,18.2639909 156.479997,16.7160064 157.152,15.444 C157.824003,14.1719936 158.519996,13.536 159.24,13.536 C160.152005,13.536 161.147995,14.2559928 162.228,15.696 C163.308005,17.1360072 164.039998,17.9279993 164.424,18.072 C164.568001,17.4959971 164.64,16.8720034 164.64,16.2 C164.64,15.2879954 164.568001,14.2560058 164.424,13.104 C164.279999,11.9519942 164.208,11.2560012 164.208,11.016 C164.208,10.007995 164.483997,9.13200372 165.036,8.388 C165.588003,7.64399628 166.199997,7.272 166.872,7.272 C168.744009,7.272 169.68,8.66398608 169.68,11.448 C169.68,12.0240029 169.620001,12.8879942 169.5,14.04 C169.379999,15.1920058 169.32,16.0559971 169.32,16.632 C169.32,16.7760007 169.368,17.1839966 169.464,17.856 C169.992003,17.5679986 170.759995,16.7760065 171.768,15.48 C172.632004,14.3759945 173.375997,13.824 174,13.824 C175.536008,13.824 176.495998,15.8159801 176.88,19.8 C177.024001,21.1440067 177.096,23.8799794 177.096,28.008 C177.096,34.2960314 174.720024,41.4239602 169.968,49.392 C170.112001,49.7760019 170.495997,49.968 171.12,49.968 C174.240016,49.968 176.615992,48.2880168 178.248,44.928 C179.880008,41.5679832 180.959997,36.384035 181.488,29.376 C181.584,28.0319933 181.632,26.9520041 181.632,26.136 L181.632,24.696 C181.584,24.0719969 181.56,23.6160014 181.56,23.328 C181.56,18.8639777 182.903987,16.632 185.592,16.632 C186.648005,16.632 187.415998,17.231994 187.896,18.432 C188.184001,19.2960043 188.471999,21.0479868 188.76,23.688 C189.096002,26.9040161 189.383999,28.512 189.624,28.512 C189.960002,28.512 190.271999,28.0800043 190.56,27.216 C190.944002,26.1119945 191.327998,24.9840058 191.712,23.832 C192.144002,22.9679957 192.839995,22.536 193.8,22.536 C194.712005,22.536 195.515997,23.0039953 196.212,23.94 C196.908003,24.8760047 197.256,25.9679938 197.256,27.216 C197.256,30.4320161 196.032012,34.0799796 193.584,38.16 C189.59998,44.8320334 185.064025,49.0079916 179.976,50.688 C178.727994,50.9760014 177.480006,51.2879983 176.232,51.624 C174.695992,52.0080019 173.592003,52.6079959 172.92,53.424 L172.92,53.496 C172.92,54.0720029 173.663993,54.6719969 175.152,55.296 C176.640007,55.9200031 178.39199,56.232 180.408,56.232 C183.000013,56.232 186.155981,55.9680026 189.876,55.44 C193.596019,54.9119974 196.007994,54.648 197.112,54.648 C199.896014,54.648 201.288,55.9919866 201.288,58.68 C201.288,60.2160077 199.968013,61.583994 197.328,62.784 C197.28,62.784 196.536007,63.0719971 195.096,63.648 C194.663998,63.840001 194.448,64.031999 194.448,64.224 C194.448,64.8480031 195.047994,65.4959966 196.248,66.168 C197.688007,66.7920031 199.151993,67.3919971 200.64,67.968 C202.128007,68.7360038 202.872,69.8879923 202.872,71.424 L202.872,71.424 Z M341.4,21.024 C341.4,22.5600077 341.256001,24.0719926 340.968,25.56 C340.679999,27.0480074 340.536,27.8159998 340.536,27.864 C340.536,27.9600005 340.56,28.1759983 340.608,28.512 L340.608,29.376 C340.608,31.776012 340.032006,32.976 338.88,32.976 C337.343992,32.976 336.576,31.5600142 336.576,28.728 C336.576,27.1919923 336.899997,25.3320109 337.548,23.148 C338.196003,20.9639891 338.52,19.5600031 338.52,18.936 C338.52,17.8799947 337.788007,16.8240053 336.324,15.768 C334.859993,14.7119947 333.528006,14.184 332.328,14.184 C327.623976,14.184 322.440028,17.0399714 316.776,22.752 C310.919971,28.7040298 305.064029,37.2239446 299.208,48.312 C297.095989,52.3440202 295.296007,56.7119765 293.808,61.416 C292.559994,65.4480202 291.672003,68.9519851 291.144,71.928 C290.951999,72.936005 290.808,73.5599988 290.712,73.8 C290.423999,74.2800024 289.872004,74.6399988 289.056,74.88 C288.815999,74.4959981 288.696,74.1120019 288.696,73.728 C288.696,73.4399986 288.887998,72.5040079 289.272,70.92 C289.752002,68.6639887 290.159998,66.6720086 290.496,64.944 C290.736001,62.351987 291.575993,57.5040355 293.016,50.4 C296.280016,37.6799364 301.127968,27.816035 307.56,20.808 C313.848031,14.0399662 320.927961,10.656 328.8,10.656 C332.544019,10.656 335.579988,11.6399902 337.908,13.608 C340.236012,15.5760098 341.4,18.0479851 341.4,21.024 L341.4,21.024 Z M298.272,20.376 C298.272,21.0000031 297.600007,22.7279858 296.256,25.56 C294.33599,29.4960197 292.776006,33.1199834 291.576,36.432 C290.567995,39.2640142 289.728003,43.175975 289.056,48.168 C288.719998,50.6160122 288.144004,56.135957 287.328,64.728 C287.183999,66.5040089 287.016001,68.2799911 286.824,70.056 C286.679999,71.3040062 286.392002,71.928 285.96,71.928 C285.383997,71.928 285.096,70.5600137 285.096,67.824 C285.096,67.2479971 285.12,66.4320053 285.168,65.376 C285.216,64.3199947 285.24,63.5280026 285.24,63 L285.24,62.424 C285.24,55.2719642 284.952003,49.3440235 284.376,44.64 C283.847997,40.5599796 283.296003,38.52 282.72,38.52 C282.191997,38.52 281.928,39.3119921 281.928,40.896 C281.928,40.7519993 281.999999,41.6639902 282.144,43.632 C282.288001,45.8880113 282.384,48.3839863 282.432,51.12 C282.48,52.8000084 282.671998,55.343983 283.008,58.752 C283.296001,61.9200158 283.44,64.3199918 283.44,65.952 C283.44,71.95203 283.224002,74.952 282.792,74.952 L282.648,74.952 C281.735995,74.952 281.160001,73.656013 280.92,71.064 C280.631999,67.2239808 280.368001,63.3600194 280.128,59.472 C279.743998,54.6239758 278.880007,50.0640214 277.536,45.792 C277.055998,44.3039926 274.968018,38.9760458 271.272,29.808 C268.727987,23.5199686 267.456,20.1120026 267.456,19.584 C267.456,18.9119966 267.755997,18.276003 268.356,17.676 C268.956003,17.075997 269.519997,16.776 270.048,16.776 C270.432002,16.776 271.151995,17.1239965 272.208,17.82 C273.264005,18.5160035 273.959998,18.864 274.296,18.864 C274.584001,18.864 274.991997,18.4800038 275.52,17.712 C276.240004,16.6559947 276.959996,15.6000053 277.68,14.544 C279.69601,11.7119858 281.231995,10.296 282.288,10.296 C283.104004,10.296 283.799997,10.5599974 284.376,11.088 C284.664001,11.3760014 285.263995,12.0959942 286.176,13.248 C286.320001,13.440001 287.279991,14.735988 289.056,17.136 C289.728003,18.0960048 290.183999,18.576 290.424,18.576 C290.712001,18.576 291.395995,18.2040037 292.476,17.46 C293.556005,16.7159963 294.263998,16.344 294.6,16.344 C295.512005,16.344 296.351996,16.7639958 297.12,17.604 C297.888004,18.4440042 298.272,19.367995 298.272,20.376 L298.272,20.376 Z M279.768,73.512 C279.768,74.3280041 279.360004,74.736 278.544,74.736 C277.919997,74.736 277.464001,74.4720026 277.176,73.944 C276.983999,73.6079983 276.720002,72.840006 276.384,71.64 C273.647986,61.9919518 270.24002,53.3760379 266.16,45.792 C260.783973,35.7119496 255.408027,27.8160286 250.032,22.104 C245.087975,16.8239736 240.936017,14.184 237.576,14.184 C235.51199,14.184 233.844006,14.8559933 232.572,16.2 C231.299994,17.5440067 230.664,19.319989 230.664,21.528 C230.664,22.1040029 230.843998,22.9199947 231.204,23.976 C231.564002,25.0320053 231.744,25.7999976 231.744,26.28 C231.744,26.8560029 231.528002,27.6839946 231.096,28.764 C230.663998,29.8440054 230.328001,30.384 230.088,30.384 C229.319996,30.384 228.576004,29.4960089 227.856,27.72 C226.991996,25.6559897 226.56,23.2080142 226.56,20.376 C226.56,18.5999911 227.015995,17.112006 227.928,15.912 C229.032006,14.4239926 230.61599,13.176005 232.68,12.168 C234.60001,11.159995 236.399992,10.656 238.08,10.656 C242.06402,10.656 246.167979,11.9759868 250.392,14.616 C254.712022,17.4000139 258.791981,21.3839741 262.632,26.568 C267.864026,33.6720355 271.583989,42.0719515 273.792,51.768 C274.992006,56.9520259 276.383992,62.0639748 277.968,67.104 C279.168006,70.9920194 279.768,73.1279981 279.768,73.512 L279.768,73.512 Z" id="a-b-c-d-e" fill="#3F3F3F" sketch:type="MSShapeGroup"></path>
    </g>
</svg>